%FSLAX45Y45*%
G04 Gerber Fmt 4.5, Leading zero omitted, Abs format (unit mm)*
G04 Created by KiCad (PCBNEW (5.1.10)-1) date 2021-06-05 16:37:24*
%MOMM*%
%LPD*%
G01*
G04 APERTURE LIST*
%TA.AperFunction,Profile*%
%ADD10C,0.100000*%
%TD*%
%ADD11C,0.200000*%
%ADD12C,0.300000*%
G04 APERTURE END LIST*
D10*
X1550000Y-5450000D02*
X7450000Y-5450000D01*
X1550000Y-2450000D02*
X7450000Y-2450000D01*
X1550000Y-2450000D02*
G75*
G03*
X1250000Y-2750000I0J-300000D01*
G01*
X7750000Y-2750000D02*
G75*
G03*
X7450000Y-2450000I-300000J0D01*
G01*
X7450000Y-5450000D02*
G75*
G03*
X7750000Y-5150000I0J300000D01*
G01*
X1250000Y-5150000D02*
G75*
G03*
X1550000Y-5450000I300000J0D01*
G01*
X1250000Y-2750000D02*
X1250000Y-5150000D01*
X7750000Y-2750000D02*
X7750000Y-5150000D01*
D11*
X2062500Y-2629500D02*
X2159500Y-2726500D01*
X2159500Y-2629500D02*
X2062500Y-2726500D01*
X2062500Y-2883500D02*
X2159500Y-2980500D01*
X2159500Y-2883500D02*
X2062500Y-2980500D01*
X2316500Y-2629500D02*
X2413500Y-2726500D01*
X2413500Y-2629500D02*
X2316500Y-2726500D01*
X2316500Y-2883500D02*
X2413500Y-2980500D01*
X2413500Y-2883500D02*
X2316500Y-2980500D01*
X2570500Y-2629500D02*
X2667500Y-2726500D01*
X2667500Y-2629500D02*
X2570500Y-2726500D01*
X2570500Y-2883500D02*
X2667500Y-2980500D01*
X2667500Y-2883500D02*
X2570500Y-2980500D01*
X2824500Y-2629500D02*
X2921500Y-2726500D01*
X2921500Y-2629500D02*
X2824500Y-2726500D01*
X2824500Y-2883500D02*
X2921500Y-2980500D01*
X2921500Y-2883500D02*
X2824500Y-2980500D01*
X3078500Y-2629500D02*
X3175500Y-2726500D01*
X3175500Y-2629500D02*
X3078500Y-2726500D01*
X3078500Y-2883500D02*
X3175500Y-2980500D01*
X3175500Y-2883500D02*
X3078500Y-2980500D01*
X3332500Y-2629500D02*
X3429500Y-2726500D01*
X3429500Y-2629500D02*
X3332500Y-2726500D01*
X3332500Y-2883500D02*
X3429500Y-2980500D01*
X3429500Y-2883500D02*
X3332500Y-2980500D01*
X3586500Y-2629500D02*
X3683500Y-2726500D01*
X3683500Y-2629500D02*
X3586500Y-2726500D01*
X3586500Y-2883500D02*
X3683500Y-2980500D01*
X3683500Y-2883500D02*
X3586500Y-2980500D01*
X3840500Y-2629500D02*
X3937500Y-2726500D01*
X3937500Y-2629500D02*
X3840500Y-2726500D01*
X3840500Y-2883500D02*
X3937500Y-2980500D01*
X3937500Y-2883500D02*
X3840500Y-2980500D01*
X4094500Y-2629500D02*
X4191500Y-2726500D01*
X4191500Y-2629500D02*
X4094500Y-2726500D01*
X4094500Y-2883500D02*
X4191500Y-2980500D01*
X4191500Y-2883500D02*
X4094500Y-2980500D01*
X4348500Y-2629500D02*
X4445500Y-2726500D01*
X4445500Y-2629500D02*
X4348500Y-2726500D01*
X4348500Y-2883500D02*
X4445500Y-2980500D01*
X4445500Y-2883500D02*
X4348500Y-2980500D01*
X4602500Y-2629500D02*
X4699500Y-2726500D01*
X4699500Y-2629500D02*
X4602500Y-2726500D01*
X4602500Y-2883500D02*
X4699500Y-2980500D01*
X4699500Y-2883500D02*
X4602500Y-2980500D01*
X4856500Y-2629500D02*
X4953500Y-2726500D01*
X4953500Y-2629500D02*
X4856500Y-2726500D01*
X4856500Y-2883500D02*
X4953500Y-2980500D01*
X4953500Y-2883500D02*
X4856500Y-2980500D01*
X5110500Y-2629500D02*
X5207500Y-2726500D01*
X5207500Y-2629500D02*
X5110500Y-2726500D01*
X5110500Y-2883500D02*
X5207500Y-2980500D01*
X5207500Y-2883500D02*
X5110500Y-2980500D01*
X5364500Y-2629500D02*
X5461500Y-2726500D01*
X5461500Y-2629500D02*
X5364500Y-2726500D01*
X5364500Y-2883500D02*
X5461500Y-2980500D01*
X5461500Y-2883500D02*
X5364500Y-2980500D01*
X5618500Y-2629500D02*
X5715500Y-2726500D01*
X5715500Y-2629500D02*
X5618500Y-2726500D01*
X5618500Y-2883500D02*
X5715500Y-2980500D01*
X5715500Y-2883500D02*
X5618500Y-2980500D01*
X5872500Y-2629500D02*
X5969500Y-2726500D01*
X5969500Y-2629500D02*
X5872500Y-2726500D01*
X5872500Y-2883500D02*
X5969500Y-2980500D01*
X5969500Y-2883500D02*
X5872500Y-2980500D01*
X6126500Y-2629500D02*
X6223500Y-2726500D01*
X6223500Y-2629500D02*
X6126500Y-2726500D01*
X6126500Y-2883500D02*
X6223500Y-2980500D01*
X6223500Y-2883500D02*
X6126500Y-2980500D01*
X6380500Y-2629500D02*
X6477500Y-2726500D01*
X6477500Y-2629500D02*
X6380500Y-2726500D01*
X6380500Y-2883500D02*
X6477500Y-2980500D01*
X6477500Y-2883500D02*
X6380500Y-2980500D01*
X6634500Y-2629500D02*
X6731500Y-2726500D01*
X6731500Y-2629500D02*
X6634500Y-2726500D01*
X6634500Y-2883500D02*
X6731500Y-2980500D01*
X6731500Y-2883500D02*
X6634500Y-2980500D01*
X6888500Y-2629500D02*
X6985500Y-2726500D01*
X6985500Y-2629500D02*
X6888500Y-2726500D01*
X6888500Y-2883500D02*
X6985500Y-2980500D01*
X6985500Y-2883500D02*
X6888500Y-2980500D01*
X2327000Y-2805000D02*
G75*
G03*
X2327000Y-2805000I-89000J0D01*
G01*
X6899000Y-2805000D02*
G75*
G03*
X6899000Y-2805000I-89000J0D01*
G01*
X1600000Y-2662500D02*
X1600000Y-2937500D01*
X1462500Y-2800000D02*
X1737500Y-2800000D01*
X1600000Y-4962500D02*
X1600000Y-5237500D01*
X1462500Y-5100000D02*
X1737500Y-5100000D01*
X7400000Y-2662500D02*
X7400000Y-2937500D01*
X7262500Y-2800000D02*
X7537500Y-2800000D01*
D12*
X1531428Y-5920714D02*
X1531428Y-5620714D01*
X1602857Y-5620714D01*
X1645714Y-5635000D01*
X1674286Y-5663571D01*
X1688571Y-5692143D01*
X1702857Y-5749286D01*
X1702857Y-5792143D01*
X1688571Y-5849286D01*
X1674286Y-5877857D01*
X1645714Y-5906429D01*
X1602857Y-5920714D01*
X1531428Y-5920714D01*
X1831428Y-5920714D02*
X1831428Y-5720714D01*
X1831428Y-5777857D02*
X1845714Y-5749286D01*
X1860000Y-5735000D01*
X1888571Y-5720714D01*
X1917143Y-5720714D01*
X2017143Y-5920714D02*
X2017143Y-5720714D01*
X2017143Y-5620714D02*
X2002857Y-5635000D01*
X2017143Y-5649286D01*
X2031428Y-5635000D01*
X2017143Y-5620714D01*
X2017143Y-5649286D01*
X2202857Y-5920714D02*
X2174286Y-5906429D01*
X2160000Y-5877857D01*
X2160000Y-5620714D01*
X2360000Y-5920714D02*
X2331428Y-5906429D01*
X2317143Y-5877857D01*
X2317143Y-5620714D01*
X2702857Y-5920714D02*
X2702857Y-5620714D01*
X2802857Y-5835000D01*
X2902857Y-5620714D01*
X2902857Y-5920714D01*
X3174286Y-5920714D02*
X3174286Y-5763571D01*
X3160000Y-5735000D01*
X3131428Y-5720714D01*
X3074286Y-5720714D01*
X3045714Y-5735000D01*
X3174286Y-5906429D02*
X3145714Y-5920714D01*
X3074286Y-5920714D01*
X3045714Y-5906429D01*
X3031428Y-5877857D01*
X3031428Y-5849286D01*
X3045714Y-5820714D01*
X3074286Y-5806429D01*
X3145714Y-5806429D01*
X3174286Y-5792143D01*
X3317143Y-5720714D02*
X3317143Y-6020714D01*
X3317143Y-5735000D02*
X3345714Y-5720714D01*
X3402857Y-5720714D01*
X3431428Y-5735000D01*
X3445714Y-5749286D01*
X3460000Y-5777857D01*
X3460000Y-5863571D01*
X3445714Y-5892143D01*
X3431428Y-5906429D01*
X3402857Y-5920714D01*
X3345714Y-5920714D01*
X3317143Y-5906429D01*
X3588571Y-5892143D02*
X3602857Y-5906429D01*
X3588571Y-5920714D01*
X3574286Y-5906429D01*
X3588571Y-5892143D01*
X3588571Y-5920714D01*
X3588571Y-5735000D02*
X3602857Y-5749286D01*
X3588571Y-5763571D01*
X3574286Y-5749286D01*
X3588571Y-5735000D01*
X3588571Y-5763571D01*
X1148000Y-6366500D02*
X1245000Y-6463500D01*
X1245000Y-6366500D02*
X1148000Y-6463500D01*
X1588571Y-6250714D02*
X1617143Y-6250714D01*
X1645714Y-6265000D01*
X1660000Y-6279286D01*
X1674286Y-6307857D01*
X1688571Y-6365000D01*
X1688571Y-6436429D01*
X1674286Y-6493571D01*
X1660000Y-6522143D01*
X1645714Y-6536429D01*
X1617143Y-6550714D01*
X1588571Y-6550714D01*
X1560000Y-6536429D01*
X1545714Y-6522143D01*
X1531428Y-6493571D01*
X1517143Y-6436429D01*
X1517143Y-6365000D01*
X1531428Y-6307857D01*
X1545714Y-6279286D01*
X1560000Y-6265000D01*
X1588571Y-6250714D01*
X1817143Y-6522143D02*
X1831428Y-6536429D01*
X1817143Y-6550714D01*
X1802857Y-6536429D01*
X1817143Y-6522143D01*
X1817143Y-6550714D01*
X1974286Y-6550714D02*
X2031428Y-6550714D01*
X2060000Y-6536429D01*
X2074286Y-6522143D01*
X2102857Y-6479286D01*
X2117143Y-6422143D01*
X2117143Y-6307857D01*
X2102857Y-6279286D01*
X2088571Y-6265000D01*
X2060000Y-6250714D01*
X2002857Y-6250714D01*
X1974286Y-6265000D01*
X1960000Y-6279286D01*
X1945714Y-6307857D01*
X1945714Y-6379286D01*
X1960000Y-6407857D01*
X1974286Y-6422143D01*
X2002857Y-6436429D01*
X2060000Y-6436429D01*
X2088571Y-6422143D01*
X2102857Y-6407857D01*
X2117143Y-6379286D01*
X2217143Y-6250714D02*
X2417143Y-6250714D01*
X2288571Y-6550714D01*
X2588571Y-6250714D02*
X2617143Y-6250714D01*
X2645714Y-6265000D01*
X2660000Y-6279286D01*
X2674286Y-6307857D01*
X2688571Y-6365000D01*
X2688571Y-6436429D01*
X2674286Y-6493571D01*
X2660000Y-6522143D01*
X2645714Y-6536429D01*
X2617143Y-6550714D01*
X2588571Y-6550714D01*
X2560000Y-6536429D01*
X2545714Y-6522143D01*
X2531428Y-6493571D01*
X2517143Y-6436429D01*
X2517143Y-6365000D01*
X2531428Y-6307857D01*
X2545714Y-6279286D01*
X2560000Y-6265000D01*
X2588571Y-6250714D01*
X2817143Y-6550714D02*
X2817143Y-6350714D01*
X2817143Y-6379286D02*
X2831428Y-6365000D01*
X2860000Y-6350714D01*
X2902857Y-6350714D01*
X2931428Y-6365000D01*
X2945714Y-6393571D01*
X2945714Y-6550714D01*
X2945714Y-6393571D02*
X2960000Y-6365000D01*
X2988571Y-6350714D01*
X3031428Y-6350714D01*
X3060000Y-6365000D01*
X3074286Y-6393571D01*
X3074286Y-6550714D01*
X3217143Y-6550714D02*
X3217143Y-6350714D01*
X3217143Y-6379286D02*
X3231428Y-6365000D01*
X3260000Y-6350714D01*
X3302857Y-6350714D01*
X3331428Y-6365000D01*
X3345714Y-6393571D01*
X3345714Y-6550714D01*
X3345714Y-6393571D02*
X3360000Y-6365000D01*
X3388571Y-6350714D01*
X3431428Y-6350714D01*
X3460000Y-6365000D01*
X3474286Y-6393571D01*
X3474286Y-6550714D01*
X4060000Y-6236429D02*
X3802857Y-6622143D01*
X4445714Y-6250714D02*
X4474286Y-6250714D01*
X4502857Y-6265000D01*
X4517143Y-6279286D01*
X4531428Y-6307857D01*
X4545714Y-6365000D01*
X4545714Y-6436429D01*
X4531428Y-6493571D01*
X4517143Y-6522143D01*
X4502857Y-6536429D01*
X4474286Y-6550714D01*
X4445714Y-6550714D01*
X4417143Y-6536429D01*
X4402857Y-6522143D01*
X4388571Y-6493571D01*
X4374286Y-6436429D01*
X4374286Y-6365000D01*
X4388571Y-6307857D01*
X4402857Y-6279286D01*
X4417143Y-6265000D01*
X4445714Y-6250714D01*
X4674286Y-6522143D02*
X4688571Y-6536429D01*
X4674286Y-6550714D01*
X4660000Y-6536429D01*
X4674286Y-6522143D01*
X4674286Y-6550714D01*
X4874286Y-6250714D02*
X4902857Y-6250714D01*
X4931428Y-6265000D01*
X4945714Y-6279286D01*
X4960000Y-6307857D01*
X4974286Y-6365000D01*
X4974286Y-6436429D01*
X4960000Y-6493571D01*
X4945714Y-6522143D01*
X4931428Y-6536429D01*
X4902857Y-6550714D01*
X4874286Y-6550714D01*
X4845714Y-6536429D01*
X4831428Y-6522143D01*
X4817143Y-6493571D01*
X4802857Y-6436429D01*
X4802857Y-6365000D01*
X4817143Y-6307857D01*
X4831428Y-6279286D01*
X4845714Y-6265000D01*
X4874286Y-6250714D01*
X5074286Y-6250714D02*
X5260000Y-6250714D01*
X5160000Y-6365000D01*
X5202857Y-6365000D01*
X5231428Y-6379286D01*
X5245714Y-6393571D01*
X5260000Y-6422143D01*
X5260000Y-6493571D01*
X5245714Y-6522143D01*
X5231428Y-6536429D01*
X5202857Y-6550714D01*
X5117143Y-6550714D01*
X5088571Y-6536429D01*
X5074286Y-6522143D01*
X5431428Y-6379286D02*
X5402857Y-6365000D01*
X5388571Y-6350714D01*
X5374286Y-6322143D01*
X5374286Y-6307857D01*
X5388571Y-6279286D01*
X5402857Y-6265000D01*
X5431428Y-6250714D01*
X5488571Y-6250714D01*
X5517143Y-6265000D01*
X5531428Y-6279286D01*
X5545714Y-6307857D01*
X5545714Y-6322143D01*
X5531428Y-6350714D01*
X5517143Y-6365000D01*
X5488571Y-6379286D01*
X5431428Y-6379286D01*
X5402857Y-6393571D01*
X5388571Y-6407857D01*
X5374286Y-6436429D01*
X5374286Y-6493571D01*
X5388571Y-6522143D01*
X5402857Y-6536429D01*
X5431428Y-6550714D01*
X5488571Y-6550714D01*
X5517143Y-6536429D01*
X5531428Y-6522143D01*
X5545714Y-6493571D01*
X5545714Y-6436429D01*
X5531428Y-6407857D01*
X5517143Y-6393571D01*
X5488571Y-6379286D01*
X5660000Y-6279286D02*
X5674286Y-6265000D01*
X5702857Y-6250714D01*
X5774286Y-6250714D01*
X5802857Y-6265000D01*
X5817143Y-6279286D01*
X5831428Y-6307857D01*
X5831428Y-6336429D01*
X5817143Y-6379286D01*
X5645714Y-6550714D01*
X5831428Y-6550714D01*
X5945714Y-6250714D02*
X5945714Y-6307857D01*
X6060000Y-6250714D02*
X6060000Y-6307857D01*
X6502857Y-6665000D02*
X6488571Y-6650714D01*
X6460000Y-6607857D01*
X6445714Y-6579286D01*
X6431428Y-6536429D01*
X6417143Y-6465000D01*
X6417143Y-6407857D01*
X6431428Y-6336429D01*
X6445714Y-6293571D01*
X6460000Y-6265000D01*
X6488571Y-6222143D01*
X6502857Y-6207857D01*
X6745714Y-6350714D02*
X6745714Y-6550714D01*
X6674286Y-6236429D02*
X6602857Y-6450714D01*
X6788571Y-6450714D01*
X6960000Y-6250714D02*
X6988571Y-6250714D01*
X7017143Y-6265000D01*
X7031428Y-6279286D01*
X7045714Y-6307857D01*
X7060000Y-6365000D01*
X7060000Y-6436429D01*
X7045714Y-6493571D01*
X7031428Y-6522143D01*
X7017143Y-6536429D01*
X6988571Y-6550714D01*
X6960000Y-6550714D01*
X6931428Y-6536429D01*
X6917143Y-6522143D01*
X6902857Y-6493571D01*
X6888571Y-6436429D01*
X6888571Y-6365000D01*
X6902857Y-6307857D01*
X6917143Y-6279286D01*
X6931428Y-6265000D01*
X6960000Y-6250714D01*
X7417143Y-6550714D02*
X7417143Y-6250714D01*
X7545714Y-6550714D02*
X7545714Y-6393571D01*
X7531428Y-6365000D01*
X7502857Y-6350714D01*
X7460000Y-6350714D01*
X7431428Y-6365000D01*
X7417143Y-6379286D01*
X7731428Y-6550714D02*
X7702857Y-6536429D01*
X7688571Y-6522143D01*
X7674286Y-6493571D01*
X7674286Y-6407857D01*
X7688571Y-6379286D01*
X7702857Y-6365000D01*
X7731428Y-6350714D01*
X7774286Y-6350714D01*
X7802857Y-6365000D01*
X7817143Y-6379286D01*
X7831428Y-6407857D01*
X7831428Y-6493571D01*
X7817143Y-6522143D01*
X7802857Y-6536429D01*
X7774286Y-6550714D01*
X7731428Y-6550714D01*
X8002857Y-6550714D02*
X7974286Y-6536429D01*
X7960000Y-6507857D01*
X7960000Y-6250714D01*
X8231428Y-6536429D02*
X8202857Y-6550714D01*
X8145714Y-6550714D01*
X8117143Y-6536429D01*
X8102857Y-6507857D01*
X8102857Y-6393571D01*
X8117143Y-6365000D01*
X8145714Y-6350714D01*
X8202857Y-6350714D01*
X8231428Y-6365000D01*
X8245714Y-6393571D01*
X8245714Y-6422143D01*
X8102857Y-6450714D01*
X8360000Y-6536429D02*
X8388571Y-6550714D01*
X8445714Y-6550714D01*
X8474286Y-6536429D01*
X8488571Y-6507857D01*
X8488571Y-6493571D01*
X8474286Y-6465000D01*
X8445714Y-6450714D01*
X8402857Y-6450714D01*
X8374286Y-6436429D01*
X8360000Y-6407857D01*
X8360000Y-6393571D01*
X8374286Y-6365000D01*
X8402857Y-6350714D01*
X8445714Y-6350714D01*
X8474286Y-6365000D01*
X8588571Y-6665000D02*
X8602857Y-6650714D01*
X8631428Y-6607857D01*
X8645714Y-6579286D01*
X8660000Y-6536429D01*
X8674286Y-6465000D01*
X8674286Y-6407857D01*
X8660000Y-6336429D01*
X8645714Y-6293571D01*
X8631428Y-6265000D01*
X8602857Y-6222143D01*
X8588571Y-6207857D01*
X9131428Y-6665000D02*
X9117143Y-6650714D01*
X9088571Y-6607857D01*
X9074286Y-6579286D01*
X9060000Y-6536429D01*
X9045714Y-6465000D01*
X9045714Y-6407857D01*
X9060000Y-6336429D01*
X9074286Y-6293571D01*
X9088571Y-6265000D01*
X9117143Y-6222143D01*
X9131428Y-6207857D01*
X9245714Y-6350714D02*
X9245714Y-6550714D01*
X9245714Y-6379286D02*
X9260000Y-6365000D01*
X9288571Y-6350714D01*
X9331428Y-6350714D01*
X9360000Y-6365000D01*
X9374286Y-6393571D01*
X9374286Y-6550714D01*
X9560000Y-6550714D02*
X9531428Y-6536429D01*
X9517143Y-6522143D01*
X9502857Y-6493571D01*
X9502857Y-6407857D01*
X9517143Y-6379286D01*
X9531428Y-6365000D01*
X9560000Y-6350714D01*
X9602857Y-6350714D01*
X9631428Y-6365000D01*
X9645714Y-6379286D01*
X9660000Y-6407857D01*
X9660000Y-6493571D01*
X9645714Y-6522143D01*
X9631428Y-6536429D01*
X9602857Y-6550714D01*
X9560000Y-6550714D01*
X9745714Y-6350714D02*
X9860000Y-6350714D01*
X9788571Y-6250714D02*
X9788571Y-6507857D01*
X9802857Y-6536429D01*
X9831428Y-6550714D01*
X9860000Y-6550714D01*
X10188571Y-6350714D02*
X10188571Y-6650714D01*
X10188571Y-6365000D02*
X10217143Y-6350714D01*
X10274286Y-6350714D01*
X10302857Y-6365000D01*
X10317143Y-6379286D01*
X10331428Y-6407857D01*
X10331428Y-6493571D01*
X10317143Y-6522143D01*
X10302857Y-6536429D01*
X10274286Y-6550714D01*
X10217143Y-6550714D01*
X10188571Y-6536429D01*
X10502857Y-6550714D02*
X10474286Y-6536429D01*
X10460000Y-6507857D01*
X10460000Y-6250714D01*
X10745714Y-6550714D02*
X10745714Y-6393571D01*
X10731428Y-6365000D01*
X10702857Y-6350714D01*
X10645714Y-6350714D01*
X10617143Y-6365000D01*
X10745714Y-6536429D02*
X10717143Y-6550714D01*
X10645714Y-6550714D01*
X10617143Y-6536429D01*
X10602857Y-6507857D01*
X10602857Y-6479286D01*
X10617143Y-6450714D01*
X10645714Y-6436429D01*
X10717143Y-6436429D01*
X10745714Y-6422143D01*
X10845714Y-6350714D02*
X10960000Y-6350714D01*
X10888571Y-6250714D02*
X10888571Y-6507857D01*
X10902857Y-6536429D01*
X10931428Y-6550714D01*
X10960000Y-6550714D01*
X11174286Y-6536429D02*
X11145714Y-6550714D01*
X11088571Y-6550714D01*
X11060000Y-6536429D01*
X11045714Y-6507857D01*
X11045714Y-6393571D01*
X11060000Y-6365000D01*
X11088571Y-6350714D01*
X11145714Y-6350714D01*
X11174286Y-6365000D01*
X11188571Y-6393571D01*
X11188571Y-6422143D01*
X11045714Y-6450714D01*
X11445714Y-6550714D02*
X11445714Y-6250714D01*
X11445714Y-6536429D02*
X11417143Y-6550714D01*
X11360000Y-6550714D01*
X11331428Y-6536429D01*
X11317143Y-6522143D01*
X11302857Y-6493571D01*
X11302857Y-6407857D01*
X11317143Y-6379286D01*
X11331428Y-6365000D01*
X11360000Y-6350714D01*
X11417143Y-6350714D01*
X11445714Y-6365000D01*
X11560000Y-6665000D02*
X11574286Y-6650714D01*
X11602857Y-6607857D01*
X11617143Y-6579286D01*
X11631428Y-6536429D01*
X11645714Y-6465000D01*
X11645714Y-6407857D01*
X11631428Y-6336429D01*
X11617143Y-6293571D01*
X11602857Y-6265000D01*
X11574286Y-6222143D01*
X11560000Y-6207857D01*
X1245000Y-6811000D02*
G75*
G03*
X1245000Y-6811000I-89000J0D01*
G01*
X1688571Y-6946714D02*
X1517143Y-6946714D01*
X1602857Y-6946714D02*
X1602857Y-6646714D01*
X1574286Y-6689571D01*
X1545714Y-6718143D01*
X1517143Y-6732429D01*
X1817143Y-6918143D02*
X1831428Y-6932429D01*
X1817143Y-6946714D01*
X1802857Y-6932429D01*
X1817143Y-6918143D01*
X1817143Y-6946714D01*
X1931428Y-6646714D02*
X2131428Y-6646714D01*
X2002857Y-6946714D01*
X2288571Y-6775286D02*
X2260000Y-6761000D01*
X2245714Y-6746714D01*
X2231428Y-6718143D01*
X2231428Y-6703857D01*
X2245714Y-6675286D01*
X2260000Y-6661000D01*
X2288571Y-6646714D01*
X2345714Y-6646714D01*
X2374286Y-6661000D01*
X2388571Y-6675286D01*
X2402857Y-6703857D01*
X2402857Y-6718143D01*
X2388571Y-6746714D01*
X2374286Y-6761000D01*
X2345714Y-6775286D01*
X2288571Y-6775286D01*
X2260000Y-6789571D01*
X2245714Y-6803857D01*
X2231428Y-6832429D01*
X2231428Y-6889571D01*
X2245714Y-6918143D01*
X2260000Y-6932429D01*
X2288571Y-6946714D01*
X2345714Y-6946714D01*
X2374286Y-6932429D01*
X2388571Y-6918143D01*
X2402857Y-6889571D01*
X2402857Y-6832429D01*
X2388571Y-6803857D01*
X2374286Y-6789571D01*
X2345714Y-6775286D01*
X2588571Y-6646714D02*
X2617143Y-6646714D01*
X2645714Y-6661000D01*
X2660000Y-6675286D01*
X2674286Y-6703857D01*
X2688571Y-6761000D01*
X2688571Y-6832429D01*
X2674286Y-6889571D01*
X2660000Y-6918143D01*
X2645714Y-6932429D01*
X2617143Y-6946714D01*
X2588571Y-6946714D01*
X2560000Y-6932429D01*
X2545714Y-6918143D01*
X2531428Y-6889571D01*
X2517143Y-6832429D01*
X2517143Y-6761000D01*
X2531428Y-6703857D01*
X2545714Y-6675286D01*
X2560000Y-6661000D01*
X2588571Y-6646714D01*
X2817143Y-6946714D02*
X2817143Y-6746714D01*
X2817143Y-6775286D02*
X2831428Y-6761000D01*
X2860000Y-6746714D01*
X2902857Y-6746714D01*
X2931428Y-6761000D01*
X2945714Y-6789571D01*
X2945714Y-6946714D01*
X2945714Y-6789571D02*
X2960000Y-6761000D01*
X2988571Y-6746714D01*
X3031428Y-6746714D01*
X3060000Y-6761000D01*
X3074286Y-6789571D01*
X3074286Y-6946714D01*
X3217143Y-6946714D02*
X3217143Y-6746714D01*
X3217143Y-6775286D02*
X3231428Y-6761000D01*
X3260000Y-6746714D01*
X3302857Y-6746714D01*
X3331428Y-6761000D01*
X3345714Y-6789571D01*
X3345714Y-6946714D01*
X3345714Y-6789571D02*
X3360000Y-6761000D01*
X3388571Y-6746714D01*
X3431428Y-6746714D01*
X3460000Y-6761000D01*
X3474286Y-6789571D01*
X3474286Y-6946714D01*
X4060000Y-6632429D02*
X3802857Y-7018143D01*
X4445714Y-6646714D02*
X4474286Y-6646714D01*
X4502857Y-6661000D01*
X4517143Y-6675286D01*
X4531428Y-6703857D01*
X4545714Y-6761000D01*
X4545714Y-6832429D01*
X4531428Y-6889571D01*
X4517143Y-6918143D01*
X4502857Y-6932429D01*
X4474286Y-6946714D01*
X4445714Y-6946714D01*
X4417143Y-6932429D01*
X4402857Y-6918143D01*
X4388571Y-6889571D01*
X4374286Y-6832429D01*
X4374286Y-6761000D01*
X4388571Y-6703857D01*
X4402857Y-6675286D01*
X4417143Y-6661000D01*
X4445714Y-6646714D01*
X4674286Y-6918143D02*
X4688571Y-6932429D01*
X4674286Y-6946714D01*
X4660000Y-6932429D01*
X4674286Y-6918143D01*
X4674286Y-6946714D01*
X4874286Y-6646714D02*
X4902857Y-6646714D01*
X4931428Y-6661000D01*
X4945714Y-6675286D01*
X4960000Y-6703857D01*
X4974286Y-6761000D01*
X4974286Y-6832429D01*
X4960000Y-6889571D01*
X4945714Y-6918143D01*
X4931428Y-6932429D01*
X4902857Y-6946714D01*
X4874286Y-6946714D01*
X4845714Y-6932429D01*
X4831428Y-6918143D01*
X4817143Y-6889571D01*
X4802857Y-6832429D01*
X4802857Y-6761000D01*
X4817143Y-6703857D01*
X4831428Y-6675286D01*
X4845714Y-6661000D01*
X4874286Y-6646714D01*
X5074286Y-6646714D02*
X5274286Y-6646714D01*
X5145714Y-6946714D01*
X5445714Y-6646714D02*
X5474286Y-6646714D01*
X5502857Y-6661000D01*
X5517143Y-6675286D01*
X5531428Y-6703857D01*
X5545714Y-6761000D01*
X5545714Y-6832429D01*
X5531428Y-6889571D01*
X5517143Y-6918143D01*
X5502857Y-6932429D01*
X5474286Y-6946714D01*
X5445714Y-6946714D01*
X5417143Y-6932429D01*
X5402857Y-6918143D01*
X5388571Y-6889571D01*
X5374286Y-6832429D01*
X5374286Y-6761000D01*
X5388571Y-6703857D01*
X5402857Y-6675286D01*
X5417143Y-6661000D01*
X5445714Y-6646714D01*
X5831428Y-6946714D02*
X5660000Y-6946714D01*
X5745714Y-6946714D02*
X5745714Y-6646714D01*
X5717143Y-6689571D01*
X5688571Y-6718143D01*
X5660000Y-6732429D01*
X5945714Y-6646714D02*
X5945714Y-6703857D01*
X6060000Y-6646714D02*
X6060000Y-6703857D01*
X6502857Y-7061000D02*
X6488571Y-7046714D01*
X6460000Y-7003857D01*
X6445714Y-6975286D01*
X6431428Y-6932429D01*
X6417143Y-6861000D01*
X6417143Y-6803857D01*
X6431428Y-6732429D01*
X6445714Y-6689571D01*
X6460000Y-6661000D01*
X6488571Y-6618143D01*
X6502857Y-6603857D01*
X6602857Y-6675286D02*
X6617143Y-6661000D01*
X6645714Y-6646714D01*
X6717143Y-6646714D01*
X6745714Y-6661000D01*
X6760000Y-6675286D01*
X6774286Y-6703857D01*
X6774286Y-6732429D01*
X6760000Y-6775286D01*
X6588571Y-6946714D01*
X6774286Y-6946714D01*
X7131428Y-6946714D02*
X7131428Y-6646714D01*
X7260000Y-6946714D02*
X7260000Y-6789571D01*
X7245714Y-6761000D01*
X7217143Y-6746714D01*
X7174286Y-6746714D01*
X7145714Y-6761000D01*
X7131428Y-6775286D01*
X7445714Y-6946714D02*
X7417143Y-6932429D01*
X7402857Y-6918143D01*
X7388571Y-6889571D01*
X7388571Y-6803857D01*
X7402857Y-6775286D01*
X7417143Y-6761000D01*
X7445714Y-6746714D01*
X7488571Y-6746714D01*
X7517143Y-6761000D01*
X7531428Y-6775286D01*
X7545714Y-6803857D01*
X7545714Y-6889571D01*
X7531428Y-6918143D01*
X7517143Y-6932429D01*
X7488571Y-6946714D01*
X7445714Y-6946714D01*
X7717143Y-6946714D02*
X7688571Y-6932429D01*
X7674286Y-6903857D01*
X7674286Y-6646714D01*
X7945714Y-6932429D02*
X7917143Y-6946714D01*
X7860000Y-6946714D01*
X7831428Y-6932429D01*
X7817143Y-6903857D01*
X7817143Y-6789571D01*
X7831428Y-6761000D01*
X7860000Y-6746714D01*
X7917143Y-6746714D01*
X7945714Y-6761000D01*
X7960000Y-6789571D01*
X7960000Y-6818143D01*
X7817143Y-6846714D01*
X8074286Y-6932429D02*
X8102857Y-6946714D01*
X8160000Y-6946714D01*
X8188571Y-6932429D01*
X8202857Y-6903857D01*
X8202857Y-6889571D01*
X8188571Y-6861000D01*
X8160000Y-6846714D01*
X8117143Y-6846714D01*
X8088571Y-6832429D01*
X8074286Y-6803857D01*
X8074286Y-6789571D01*
X8088571Y-6761000D01*
X8117143Y-6746714D01*
X8160000Y-6746714D01*
X8188571Y-6761000D01*
X8302857Y-7061000D02*
X8317143Y-7046714D01*
X8345714Y-7003857D01*
X8360000Y-6975286D01*
X8374286Y-6932429D01*
X8388571Y-6861000D01*
X8388571Y-6803857D01*
X8374286Y-6732429D01*
X8360000Y-6689571D01*
X8345714Y-6661000D01*
X8317143Y-6618143D01*
X8302857Y-6603857D01*
X8845714Y-7061000D02*
X8831428Y-7046714D01*
X8802857Y-7003857D01*
X8788571Y-6975286D01*
X8774286Y-6932429D01*
X8760000Y-6861000D01*
X8760000Y-6803857D01*
X8774286Y-6732429D01*
X8788571Y-6689571D01*
X8802857Y-6661000D01*
X8831428Y-6618143D01*
X8845714Y-6603857D01*
X8960000Y-6746714D02*
X8960000Y-6946714D01*
X8960000Y-6775286D02*
X8974286Y-6761000D01*
X9002857Y-6746714D01*
X9045714Y-6746714D01*
X9074286Y-6761000D01*
X9088571Y-6789571D01*
X9088571Y-6946714D01*
X9274286Y-6946714D02*
X9245714Y-6932429D01*
X9231428Y-6918143D01*
X9217143Y-6889571D01*
X9217143Y-6803857D01*
X9231428Y-6775286D01*
X9245714Y-6761000D01*
X9274286Y-6746714D01*
X9317143Y-6746714D01*
X9345714Y-6761000D01*
X9360000Y-6775286D01*
X9374286Y-6803857D01*
X9374286Y-6889571D01*
X9360000Y-6918143D01*
X9345714Y-6932429D01*
X9317143Y-6946714D01*
X9274286Y-6946714D01*
X9460000Y-6746714D02*
X9574286Y-6746714D01*
X9502857Y-6646714D02*
X9502857Y-6903857D01*
X9517143Y-6932429D01*
X9545714Y-6946714D01*
X9574286Y-6946714D01*
X9902857Y-6746714D02*
X9902857Y-7046714D01*
X9902857Y-6761000D02*
X9931428Y-6746714D01*
X9988571Y-6746714D01*
X10017143Y-6761000D01*
X10031428Y-6775286D01*
X10045714Y-6803857D01*
X10045714Y-6889571D01*
X10031428Y-6918143D01*
X10017143Y-6932429D01*
X9988571Y-6946714D01*
X9931428Y-6946714D01*
X9902857Y-6932429D01*
X10217143Y-6946714D02*
X10188571Y-6932429D01*
X10174286Y-6903857D01*
X10174286Y-6646714D01*
X10460000Y-6946714D02*
X10460000Y-6789571D01*
X10445714Y-6761000D01*
X10417143Y-6746714D01*
X10360000Y-6746714D01*
X10331428Y-6761000D01*
X10460000Y-6932429D02*
X10431428Y-6946714D01*
X10360000Y-6946714D01*
X10331428Y-6932429D01*
X10317143Y-6903857D01*
X10317143Y-6875286D01*
X10331428Y-6846714D01*
X10360000Y-6832429D01*
X10431428Y-6832429D01*
X10460000Y-6818143D01*
X10560000Y-6746714D02*
X10674286Y-6746714D01*
X10602857Y-6646714D02*
X10602857Y-6903857D01*
X10617143Y-6932429D01*
X10645714Y-6946714D01*
X10674286Y-6946714D01*
X10888571Y-6932429D02*
X10860000Y-6946714D01*
X10802857Y-6946714D01*
X10774286Y-6932429D01*
X10760000Y-6903857D01*
X10760000Y-6789571D01*
X10774286Y-6761000D01*
X10802857Y-6746714D01*
X10860000Y-6746714D01*
X10888571Y-6761000D01*
X10902857Y-6789571D01*
X10902857Y-6818143D01*
X10760000Y-6846714D01*
X11160000Y-6946714D02*
X11160000Y-6646714D01*
X11160000Y-6932429D02*
X11131428Y-6946714D01*
X11074286Y-6946714D01*
X11045714Y-6932429D01*
X11031428Y-6918143D01*
X11017143Y-6889571D01*
X11017143Y-6803857D01*
X11031428Y-6775286D01*
X11045714Y-6761000D01*
X11074286Y-6746714D01*
X11131428Y-6746714D01*
X11160000Y-6761000D01*
X11274286Y-7061000D02*
X11288571Y-7046714D01*
X11317143Y-7003857D01*
X11331428Y-6975286D01*
X11345714Y-6932429D01*
X11360000Y-6861000D01*
X11360000Y-6803857D01*
X11345714Y-6732429D01*
X11331428Y-6689571D01*
X11317143Y-6661000D01*
X11288571Y-6618143D01*
X11274286Y-6603857D01*
X1107500Y-7069500D02*
X1107500Y-7344500D01*
X970000Y-7207000D02*
X1245000Y-7207000D01*
X1517143Y-7071286D02*
X1531428Y-7057000D01*
X1560000Y-7042714D01*
X1631428Y-7042714D01*
X1660000Y-7057000D01*
X1674286Y-7071286D01*
X1688571Y-7099857D01*
X1688571Y-7128429D01*
X1674286Y-7171286D01*
X1502857Y-7342714D01*
X1688571Y-7342714D01*
X1817143Y-7314143D02*
X1831428Y-7328429D01*
X1817143Y-7342714D01*
X1802857Y-7328429D01*
X1817143Y-7314143D01*
X1817143Y-7342714D01*
X1931428Y-7042714D02*
X2131428Y-7042714D01*
X2002857Y-7342714D01*
X2388571Y-7042714D02*
X2245714Y-7042714D01*
X2231428Y-7185571D01*
X2245714Y-7171286D01*
X2274286Y-7157000D01*
X2345714Y-7157000D01*
X2374286Y-7171286D01*
X2388571Y-7185571D01*
X2402857Y-7214143D01*
X2402857Y-7285571D01*
X2388571Y-7314143D01*
X2374286Y-7328429D01*
X2345714Y-7342714D01*
X2274286Y-7342714D01*
X2245714Y-7328429D01*
X2231428Y-7314143D01*
X2588571Y-7042714D02*
X2617143Y-7042714D01*
X2645714Y-7057000D01*
X2660000Y-7071286D01*
X2674286Y-7099857D01*
X2688571Y-7157000D01*
X2688571Y-7228429D01*
X2674286Y-7285571D01*
X2660000Y-7314143D01*
X2645714Y-7328429D01*
X2617143Y-7342714D01*
X2588571Y-7342714D01*
X2560000Y-7328429D01*
X2545714Y-7314143D01*
X2531428Y-7285571D01*
X2517143Y-7228429D01*
X2517143Y-7157000D01*
X2531428Y-7099857D01*
X2545714Y-7071286D01*
X2560000Y-7057000D01*
X2588571Y-7042714D01*
X2817143Y-7342714D02*
X2817143Y-7142714D01*
X2817143Y-7171286D02*
X2831428Y-7157000D01*
X2860000Y-7142714D01*
X2902857Y-7142714D01*
X2931428Y-7157000D01*
X2945714Y-7185571D01*
X2945714Y-7342714D01*
X2945714Y-7185571D02*
X2960000Y-7157000D01*
X2988571Y-7142714D01*
X3031428Y-7142714D01*
X3060000Y-7157000D01*
X3074286Y-7185571D01*
X3074286Y-7342714D01*
X3217143Y-7342714D02*
X3217143Y-7142714D01*
X3217143Y-7171286D02*
X3231428Y-7157000D01*
X3260000Y-7142714D01*
X3302857Y-7142714D01*
X3331428Y-7157000D01*
X3345714Y-7185571D01*
X3345714Y-7342714D01*
X3345714Y-7185571D02*
X3360000Y-7157000D01*
X3388571Y-7142714D01*
X3431428Y-7142714D01*
X3460000Y-7157000D01*
X3474286Y-7185571D01*
X3474286Y-7342714D01*
X4060000Y-7028429D02*
X3802857Y-7414143D01*
X4445714Y-7042714D02*
X4474286Y-7042714D01*
X4502857Y-7057000D01*
X4517143Y-7071286D01*
X4531428Y-7099857D01*
X4545714Y-7157000D01*
X4545714Y-7228429D01*
X4531428Y-7285571D01*
X4517143Y-7314143D01*
X4502857Y-7328429D01*
X4474286Y-7342714D01*
X4445714Y-7342714D01*
X4417143Y-7328429D01*
X4402857Y-7314143D01*
X4388571Y-7285571D01*
X4374286Y-7228429D01*
X4374286Y-7157000D01*
X4388571Y-7099857D01*
X4402857Y-7071286D01*
X4417143Y-7057000D01*
X4445714Y-7042714D01*
X4674286Y-7314143D02*
X4688571Y-7328429D01*
X4674286Y-7342714D01*
X4660000Y-7328429D01*
X4674286Y-7314143D01*
X4674286Y-7342714D01*
X4974286Y-7342714D02*
X4802857Y-7342714D01*
X4888571Y-7342714D02*
X4888571Y-7042714D01*
X4860000Y-7085571D01*
X4831428Y-7114143D01*
X4802857Y-7128429D01*
X5160000Y-7042714D02*
X5188571Y-7042714D01*
X5217143Y-7057000D01*
X5231428Y-7071286D01*
X5245714Y-7099857D01*
X5260000Y-7157000D01*
X5260000Y-7228429D01*
X5245714Y-7285571D01*
X5231428Y-7314143D01*
X5217143Y-7328429D01*
X5188571Y-7342714D01*
X5160000Y-7342714D01*
X5131428Y-7328429D01*
X5117143Y-7314143D01*
X5102857Y-7285571D01*
X5088571Y-7228429D01*
X5088571Y-7157000D01*
X5102857Y-7099857D01*
X5117143Y-7071286D01*
X5131428Y-7057000D01*
X5160000Y-7042714D01*
X5431428Y-7171286D02*
X5402857Y-7157000D01*
X5388571Y-7142714D01*
X5374286Y-7114143D01*
X5374286Y-7099857D01*
X5388571Y-7071286D01*
X5402857Y-7057000D01*
X5431428Y-7042714D01*
X5488571Y-7042714D01*
X5517143Y-7057000D01*
X5531428Y-7071286D01*
X5545714Y-7099857D01*
X5545714Y-7114143D01*
X5531428Y-7142714D01*
X5517143Y-7157000D01*
X5488571Y-7171286D01*
X5431428Y-7171286D01*
X5402857Y-7185571D01*
X5388571Y-7199857D01*
X5374286Y-7228429D01*
X5374286Y-7285571D01*
X5388571Y-7314143D01*
X5402857Y-7328429D01*
X5431428Y-7342714D01*
X5488571Y-7342714D01*
X5517143Y-7328429D01*
X5531428Y-7314143D01*
X5545714Y-7285571D01*
X5545714Y-7228429D01*
X5531428Y-7199857D01*
X5517143Y-7185571D01*
X5488571Y-7171286D01*
X5645714Y-7042714D02*
X5831428Y-7042714D01*
X5731428Y-7157000D01*
X5774286Y-7157000D01*
X5802857Y-7171286D01*
X5817143Y-7185571D01*
X5831428Y-7214143D01*
X5831428Y-7285571D01*
X5817143Y-7314143D01*
X5802857Y-7328429D01*
X5774286Y-7342714D01*
X5688571Y-7342714D01*
X5660000Y-7328429D01*
X5645714Y-7314143D01*
X5945714Y-7042714D02*
X5945714Y-7099857D01*
X6060000Y-7042714D02*
X6060000Y-7099857D01*
X6502857Y-7457000D02*
X6488571Y-7442714D01*
X6460000Y-7399857D01*
X6445714Y-7371286D01*
X6431428Y-7328429D01*
X6417143Y-7257000D01*
X6417143Y-7199857D01*
X6431428Y-7128429D01*
X6445714Y-7085571D01*
X6460000Y-7057000D01*
X6488571Y-7014143D01*
X6502857Y-6999857D01*
X6588571Y-7042714D02*
X6774286Y-7042714D01*
X6674286Y-7157000D01*
X6717143Y-7157000D01*
X6745714Y-7171286D01*
X6760000Y-7185571D01*
X6774286Y-7214143D01*
X6774286Y-7285571D01*
X6760000Y-7314143D01*
X6745714Y-7328429D01*
X6717143Y-7342714D01*
X6631428Y-7342714D01*
X6602857Y-7328429D01*
X6588571Y-7314143D01*
X7131428Y-7342714D02*
X7131428Y-7042714D01*
X7260000Y-7342714D02*
X7260000Y-7185571D01*
X7245714Y-7157000D01*
X7217143Y-7142714D01*
X7174286Y-7142714D01*
X7145714Y-7157000D01*
X7131428Y-7171286D01*
X7445714Y-7342714D02*
X7417143Y-7328429D01*
X7402857Y-7314143D01*
X7388571Y-7285571D01*
X7388571Y-7199857D01*
X7402857Y-7171286D01*
X7417143Y-7157000D01*
X7445714Y-7142714D01*
X7488571Y-7142714D01*
X7517143Y-7157000D01*
X7531428Y-7171286D01*
X7545714Y-7199857D01*
X7545714Y-7285571D01*
X7531428Y-7314143D01*
X7517143Y-7328429D01*
X7488571Y-7342714D01*
X7445714Y-7342714D01*
X7717143Y-7342714D02*
X7688571Y-7328429D01*
X7674286Y-7299857D01*
X7674286Y-7042714D01*
X7945714Y-7328429D02*
X7917143Y-7342714D01*
X7860000Y-7342714D01*
X7831428Y-7328429D01*
X7817143Y-7299857D01*
X7817143Y-7185571D01*
X7831428Y-7157000D01*
X7860000Y-7142714D01*
X7917143Y-7142714D01*
X7945714Y-7157000D01*
X7960000Y-7185571D01*
X7960000Y-7214143D01*
X7817143Y-7242714D01*
X8074286Y-7328429D02*
X8102857Y-7342714D01*
X8160000Y-7342714D01*
X8188571Y-7328429D01*
X8202857Y-7299857D01*
X8202857Y-7285571D01*
X8188571Y-7257000D01*
X8160000Y-7242714D01*
X8117143Y-7242714D01*
X8088571Y-7228429D01*
X8074286Y-7199857D01*
X8074286Y-7185571D01*
X8088571Y-7157000D01*
X8117143Y-7142714D01*
X8160000Y-7142714D01*
X8188571Y-7157000D01*
X8302857Y-7457000D02*
X8317143Y-7442714D01*
X8345714Y-7399857D01*
X8360000Y-7371286D01*
X8374286Y-7328429D01*
X8388571Y-7257000D01*
X8388571Y-7199857D01*
X8374286Y-7128429D01*
X8360000Y-7085571D01*
X8345714Y-7057000D01*
X8317143Y-7014143D01*
X8302857Y-6999857D01*
X8845714Y-7457000D02*
X8831428Y-7442714D01*
X8802857Y-7399857D01*
X8788571Y-7371286D01*
X8774286Y-7328429D01*
X8760000Y-7257000D01*
X8760000Y-7199857D01*
X8774286Y-7128429D01*
X8788571Y-7085571D01*
X8802857Y-7057000D01*
X8831428Y-7014143D01*
X8845714Y-6999857D01*
X8960000Y-7142714D02*
X8960000Y-7342714D01*
X8960000Y-7171286D02*
X8974286Y-7157000D01*
X9002857Y-7142714D01*
X9045714Y-7142714D01*
X9074286Y-7157000D01*
X9088571Y-7185571D01*
X9088571Y-7342714D01*
X9274286Y-7342714D02*
X9245714Y-7328429D01*
X9231428Y-7314143D01*
X9217143Y-7285571D01*
X9217143Y-7199857D01*
X9231428Y-7171286D01*
X9245714Y-7157000D01*
X9274286Y-7142714D01*
X9317143Y-7142714D01*
X9345714Y-7157000D01*
X9360000Y-7171286D01*
X9374286Y-7199857D01*
X9374286Y-7285571D01*
X9360000Y-7314143D01*
X9345714Y-7328429D01*
X9317143Y-7342714D01*
X9274286Y-7342714D01*
X9460000Y-7142714D02*
X9574286Y-7142714D01*
X9502857Y-7042714D02*
X9502857Y-7299857D01*
X9517143Y-7328429D01*
X9545714Y-7342714D01*
X9574286Y-7342714D01*
X9902857Y-7142714D02*
X9902857Y-7442714D01*
X9902857Y-7157000D02*
X9931428Y-7142714D01*
X9988571Y-7142714D01*
X10017143Y-7157000D01*
X10031428Y-7171286D01*
X10045714Y-7199857D01*
X10045714Y-7285571D01*
X10031428Y-7314143D01*
X10017143Y-7328429D01*
X9988571Y-7342714D01*
X9931428Y-7342714D01*
X9902857Y-7328429D01*
X10217143Y-7342714D02*
X10188571Y-7328429D01*
X10174286Y-7299857D01*
X10174286Y-7042714D01*
X10460000Y-7342714D02*
X10460000Y-7185571D01*
X10445714Y-7157000D01*
X10417143Y-7142714D01*
X10360000Y-7142714D01*
X10331428Y-7157000D01*
X10460000Y-7328429D02*
X10431428Y-7342714D01*
X10360000Y-7342714D01*
X10331428Y-7328429D01*
X10317143Y-7299857D01*
X10317143Y-7271286D01*
X10331428Y-7242714D01*
X10360000Y-7228429D01*
X10431428Y-7228429D01*
X10460000Y-7214143D01*
X10560000Y-7142714D02*
X10674286Y-7142714D01*
X10602857Y-7042714D02*
X10602857Y-7299857D01*
X10617143Y-7328429D01*
X10645714Y-7342714D01*
X10674286Y-7342714D01*
X10888571Y-7328429D02*
X10860000Y-7342714D01*
X10802857Y-7342714D01*
X10774286Y-7328429D01*
X10760000Y-7299857D01*
X10760000Y-7185571D01*
X10774286Y-7157000D01*
X10802857Y-7142714D01*
X10860000Y-7142714D01*
X10888571Y-7157000D01*
X10902857Y-7185571D01*
X10902857Y-7214143D01*
X10760000Y-7242714D01*
X11160000Y-7342714D02*
X11160000Y-7042714D01*
X11160000Y-7328429D02*
X11131428Y-7342714D01*
X11074286Y-7342714D01*
X11045714Y-7328429D01*
X11031428Y-7314143D01*
X11017143Y-7285571D01*
X11017143Y-7199857D01*
X11031428Y-7171286D01*
X11045714Y-7157000D01*
X11074286Y-7142714D01*
X11131428Y-7142714D01*
X11160000Y-7157000D01*
X11274286Y-7457000D02*
X11288571Y-7442714D01*
X11317143Y-7399857D01*
X11331428Y-7371286D01*
X11345714Y-7328429D01*
X11360000Y-7257000D01*
X11360000Y-7199857D01*
X11345714Y-7128429D01*
X11331428Y-7085571D01*
X11317143Y-7057000D01*
X11288571Y-7014143D01*
X11274286Y-6999857D01*
M02*
