M48
; DRILL file {KiCad (5.1.10)-1} date 06/05/21 16:36:53
; FORMAT={-:-/ absolute / inch / decimal}
; #@! TF.CreationDate,2021-06-05T16:36:53+02:00
; #@! TF.GenerationSoftware,Kicad,Pcbnew,(5.1.10)-1
; #@! TF.FileFunction,Plated,1,4,PTH
FMAT,2
INCH
T1C0.0130
T2C0.0157
T3C0.0310
T4C0.0390
T5C0.0394
%
G90
G05
T1
X0.6006Y-1.658
T2
X0.5531Y-1.3051
X0.5709Y-1.8252
X0.65Y-1.55
X0.65Y-1.75
X0.6752Y-1.3087
X0.6772Y-1.3858
X0.678Y-1.4614
X0.7358Y-1.2311
X0.7476Y-1.4213
X0.7673Y-1.5626
X0.7705Y-1.3429
X0.7929Y-1.4031
X0.8776Y-1.211
X0.8819Y-1.0268
X0.9421Y-1.3559
X0.9614Y-1.3272
X0.9705Y-1.4953
X0.9713Y-1.9406
X0.9823Y-1.3008
X1.0281Y-1.4084
X1.0299Y-1.3445
X1.0827Y-1.0268
X1.085Y-1.3291
X1.0906Y-1.6252
X1.1094Y-1.5508
X1.1213Y-1.3791
X1.1642Y-2.102
X1.1732Y-1.1197
X1.2146Y-1.3496
X1.2169Y-1.2858
X1.3016Y-1.9882
X1.3708Y-1.5621
X1.4528Y-1.6083
X1.4665Y-1.3291
X1.4783Y-0.9996
X1.5705Y-1.098
X1.5776Y-1.439
X1.5791Y-1.5183
X1.5831Y-2.0354
X1.5878Y-1.7594
X1.6307Y-1.2862
X1.6362Y-1.3909
X1.65Y-1.8
X1.6803Y-0.9953
X1.7Y-1.655
X1.7331Y-1.3866
X1.7766Y-1.362
X1.8Y-1.9
X1.85Y-1.4
X1.9Y-1.85
X1.9783Y-0.9988
X1.9906Y-1.4209
X2.0772Y-1.8744
X2.0929Y-1.3638
X2.25Y-1.65
X2.2504Y-1.1055
X2.2551Y-1.9055
X2.2693Y-2.0606
X2.4685Y-1.9327
X2.5925Y-2.0028
X2.7106Y-1.7898
X2.8299Y-1.2433
T3
X1.7Y-1.3
X1.7Y-1.6
X1.8Y-1.3
X1.8Y-1.6
X1.9Y-1.3
X1.9Y-1.6
X2.0Y-1.3
X2.0Y-1.6
X2.1Y-1.3
X2.1Y-1.6
X2.2Y-1.3
X2.2Y-1.6
X2.3Y-1.3
X2.3Y-1.6
T4
X0.9087Y-1.3083
X0.9087Y-1.4854
X0.9087Y-1.589
X0.9087Y-1.7661
X0.9087Y-1.8594
X0.9087Y-2.0366
X1.1646Y-1.3083
X1.1646Y-1.4854
X1.1646Y-1.589
X1.1646Y-1.7661
X1.1646Y-1.8594
X1.1646Y-2.0366
X1.2685Y-1.3083
X1.2685Y-1.4854
X1.2685Y-1.5827
X1.2685Y-1.7598
X1.2685Y-1.8594
X1.2685Y-2.0366
X1.5244Y-1.3083
X1.5244Y-1.4854
X1.5244Y-1.5827
X1.5244Y-1.7598
X1.5244Y-1.8594
X1.5244Y-2.0366
T5
X0.8307Y-1.0567
X0.8307Y-1.1567
X0.9307Y-1.0567
X0.9307Y-1.1567
X1.0307Y-1.0567
X1.0307Y-1.1567
X1.1307Y-1.0567
X1.1307Y-1.1567
X1.2307Y-1.0567
X1.2307Y-1.1567
X1.3307Y-1.0567
X1.3307Y-1.1567
X1.4307Y-1.0567
X1.4307Y-1.1567
X1.5307Y-1.0567
X1.5307Y-1.1567
X1.6307Y-1.0567
X1.6307Y-1.1567
X1.7307Y-1.0567
X1.7307Y-1.1567
X1.8307Y-1.0567
X1.8307Y-1.1567
X1.9307Y-1.0567
X1.9307Y-1.1567
X2.0307Y-1.0567
X2.0307Y-1.1567
X2.1307Y-1.0567
X2.1307Y-1.1567
X2.2307Y-1.0567
X2.2307Y-1.1567
X2.3307Y-1.0567
X2.3307Y-1.1567
X2.4307Y-1.0567
X2.4307Y-1.1567
X2.5307Y-1.0567
X2.5307Y-1.1567
X2.6307Y-1.0567
X2.6307Y-1.1567
X2.711Y-1.4031
X2.711Y-1.7024
X2.7307Y-1.0567
X2.7307Y-1.1567
T0
M30
