%FSLAX45Y45*%
G04 Gerber Fmt 4.5, Leading zero omitted, Abs format (unit mm)*
G04 Created by KiCad (PCBNEW (5.1.10)-1) date 2021-06-05 16:37:24*
%MOMM*%
%LPD*%
G01*
G04 APERTURE LIST*
%TA.AperFunction,Profile*%
%ADD10C,0.100000*%
%TD*%
%ADD11C,0.200000*%
%ADD12C,0.300000*%
G04 APERTURE END LIST*
D10*
X1550000Y-5450000D02*
X7450000Y-5450000D01*
X1550000Y-2450000D02*
X7450000Y-2450000D01*
X1550000Y-2450000D02*
G75*
G03*
X1250000Y-2750000I0J-300000D01*
G01*
X7750000Y-2750000D02*
G75*
G03*
X7450000Y-2450000I-300000J0D01*
G01*
X7450000Y-5450000D02*
G75*
G03*
X7750000Y-5150000I0J300000D01*
G01*
X1250000Y-5150000D02*
G75*
G03*
X1550000Y-5450000I300000J0D01*
G01*
X1250000Y-2750000D02*
X1250000Y-5150000D01*
X7750000Y-2750000D02*
X7750000Y-5150000D01*
D11*
X1509090Y-4194880D02*
X1542110Y-4227900D01*
X1542110Y-4194880D02*
X1509090Y-4227900D01*
X1425000Y-3315000D02*
G75*
G03*
X1425000Y-3315000I-20000J0D01*
G01*
X1470000Y-4636000D02*
G75*
G03*
X1470000Y-4636000I-20000J0D01*
G01*
X1671000Y-3937000D02*
G75*
G03*
X1671000Y-3937000I-20000J0D01*
G01*
X1671000Y-4445000D02*
G75*
G03*
X1671000Y-4445000I-20000J0D01*
G01*
X1735000Y-3324000D02*
G75*
G03*
X1735000Y-3324000I-20000J0D01*
G01*
X1740000Y-3520000D02*
G75*
G03*
X1740000Y-3520000I-20000J0D01*
G01*
X1742000Y-3712000D02*
G75*
G03*
X1742000Y-3712000I-20000J0D01*
G01*
X1889000Y-3127000D02*
G75*
G03*
X1889000Y-3127000I-20000J0D01*
G01*
X1919000Y-3610000D02*
G75*
G03*
X1919000Y-3610000I-20000J0D01*
G01*
X1969000Y-3969000D02*
G75*
G03*
X1969000Y-3969000I-20000J0D01*
G01*
X1977000Y-3411000D02*
G75*
G03*
X1977000Y-3411000I-20000J0D01*
G01*
X2034000Y-3564000D02*
G75*
G03*
X2034000Y-3564000I-20000J0D01*
G01*
X2249000Y-3076000D02*
G75*
G03*
X2249000Y-3076000I-20000J0D01*
G01*
X2260000Y-2608000D02*
G75*
G03*
X2260000Y-2608000I-20000J0D01*
G01*
X2413000Y-3444000D02*
G75*
G03*
X2413000Y-3444000I-20000J0D01*
G01*
X2462000Y-3371000D02*
G75*
G03*
X2462000Y-3371000I-20000J0D01*
G01*
X2485000Y-3798000D02*
G75*
G03*
X2485000Y-3798000I-20000J0D01*
G01*
X2487000Y-4929000D02*
G75*
G03*
X2487000Y-4929000I-20000J0D01*
G01*
X2515000Y-3304000D02*
G75*
G03*
X2515000Y-3304000I-20000J0D01*
G01*
X2631377Y-3577377D02*
G75*
G03*
X2631377Y-3577377I-20000J0D01*
G01*
X2636000Y-3415000D02*
G75*
G03*
X2636000Y-3415000I-20000J0D01*
G01*
X2770000Y-2608000D02*
G75*
G03*
X2770000Y-2608000I-20000J0D01*
G01*
X2776000Y-3376000D02*
G75*
G03*
X2776000Y-3376000I-20000J0D01*
G01*
X2790000Y-4128000D02*
G75*
G03*
X2790000Y-4128000I-20000J0D01*
G01*
X2838000Y-3939000D02*
G75*
G03*
X2838000Y-3939000I-20000J0D01*
G01*
X2868000Y-3503000D02*
G75*
G03*
X2868000Y-3503000I-20000J0D01*
G01*
X2977000Y-5339000D02*
G75*
G03*
X2977000Y-5339000I-20000J0D01*
G01*
X3000000Y-2844000D02*
G75*
G03*
X3000000Y-2844000I-20000J0D01*
G01*
X3105000Y-3428000D02*
G75*
G03*
X3105000Y-3428000I-20000J0D01*
G01*
X3111000Y-3266000D02*
G75*
G03*
X3111000Y-3266000I-20000J0D01*
G01*
X3326000Y-5050000D02*
G75*
G03*
X3326000Y-5050000I-20000J0D01*
G01*
X3501773Y-3967649D02*
G75*
G03*
X3501773Y-3967649I-20000J0D01*
G01*
X3710000Y-4085000D02*
G75*
G03*
X3710000Y-4085000I-20000J0D01*
G01*
X3745000Y-3376000D02*
G75*
G03*
X3745000Y-3376000I-20000J0D01*
G01*
X3775000Y-2539000D02*
G75*
G03*
X3775000Y-2539000I-20000J0D01*
G01*
X4009000Y-2789000D02*
G75*
G03*
X4009000Y-2789000I-20000J0D01*
G01*
X4027000Y-3655000D02*
G75*
G03*
X4027000Y-3655000I-20000J0D01*
G01*
X4031000Y-3856500D02*
G75*
G03*
X4031000Y-3856500I-20000J0D01*
G01*
X4041000Y-5170000D02*
G75*
G03*
X4041000Y-5170000I-20000J0D01*
G01*
X4053000Y-4469000D02*
G75*
G03*
X4053000Y-4469000I-20000J0D01*
G01*
X4162000Y-3267000D02*
G75*
G03*
X4162000Y-3267000I-20000J0D01*
G01*
X4176000Y-3533000D02*
G75*
G03*
X4176000Y-3533000I-20000J0D01*
G01*
X4211000Y-4572000D02*
G75*
G03*
X4211000Y-4572000I-20000J0D01*
G01*
X4288000Y-2528000D02*
G75*
G03*
X4288000Y-2528000I-20000J0D01*
G01*
X4338000Y-4203770D02*
G75*
G03*
X4338000Y-4203770I-20000J0D01*
G01*
X4422000Y-3522000D02*
G75*
G03*
X4422000Y-3522000I-20000J0D01*
G01*
X4532623Y-3459377D02*
G75*
G03*
X4532623Y-3459377I-20000J0D01*
G01*
X4592000Y-4826000D02*
G75*
G03*
X4592000Y-4826000I-20000J0D01*
G01*
X4719000Y-3556000D02*
G75*
G03*
X4719000Y-3556000I-20000J0D01*
G01*
X4846000Y-4699000D02*
G75*
G03*
X4846000Y-4699000I-20000J0D01*
G01*
X5045000Y-2537000D02*
G75*
G03*
X5045000Y-2537000I-20000J0D01*
G01*
X5076000Y-3609000D02*
G75*
G03*
X5076000Y-3609000I-20000J0D01*
G01*
X5296000Y-4761000D02*
G75*
G03*
X5296000Y-4761000I-20000J0D01*
G01*
X5336000Y-3464000D02*
G75*
G03*
X5336000Y-3464000I-20000J0D01*
G01*
X5735000Y-4191000D02*
G75*
G03*
X5735000Y-4191000I-20000J0D01*
G01*
X5736000Y-2808000D02*
G75*
G03*
X5736000Y-2808000I-20000J0D01*
G01*
X5748000Y-4840000D02*
G75*
G03*
X5748000Y-4840000I-20000J0D01*
G01*
X5784000Y-5234000D02*
G75*
G03*
X5784000Y-5234000I-20000J0D01*
G01*
X6290000Y-4909000D02*
G75*
G03*
X6290000Y-4909000I-20000J0D01*
G01*
X6605000Y-5087000D02*
G75*
G03*
X6605000Y-5087000I-20000J0D01*
G01*
X6905000Y-4546000D02*
G75*
G03*
X6905000Y-4546000I-20000J0D01*
G01*
X7208000Y-3158000D02*
G75*
G03*
X7208000Y-3158000I-20000J0D01*
G01*
X4318000Y-3262630D02*
X4318000Y-3341370D01*
X4278630Y-3302000D02*
X4357370Y-3302000D01*
X4318000Y-4024630D02*
X4318000Y-4103370D01*
X4278630Y-4064000D02*
X4357370Y-4064000D01*
X4572000Y-3262630D02*
X4572000Y-3341370D01*
X4532630Y-3302000D02*
X4611370Y-3302000D01*
X4572000Y-4024630D02*
X4572000Y-4103370D01*
X4532630Y-4064000D02*
X4611370Y-4064000D01*
X4826000Y-3262630D02*
X4826000Y-3341370D01*
X4786630Y-3302000D02*
X4865370Y-3302000D01*
X4826000Y-4024630D02*
X4826000Y-4103370D01*
X4786630Y-4064000D02*
X4865370Y-4064000D01*
X5080000Y-3262630D02*
X5080000Y-3341370D01*
X5040630Y-3302000D02*
X5119370Y-3302000D01*
X5080000Y-4024630D02*
X5080000Y-4103370D01*
X5040630Y-4064000D02*
X5119370Y-4064000D01*
X5334000Y-3262630D02*
X5334000Y-3341370D01*
X5294630Y-3302000D02*
X5373370Y-3302000D01*
X5334000Y-4024630D02*
X5334000Y-4103370D01*
X5294630Y-4064000D02*
X5373370Y-4064000D01*
X5588000Y-3262630D02*
X5588000Y-3341370D01*
X5548630Y-3302000D02*
X5627370Y-3302000D01*
X5588000Y-4024630D02*
X5588000Y-4103370D01*
X5548630Y-4064000D02*
X5627370Y-4064000D01*
X5842000Y-3262630D02*
X5842000Y-3341370D01*
X5802630Y-3302000D02*
X5881370Y-3302000D01*
X5842000Y-4024630D02*
X5842000Y-4103370D01*
X5802630Y-4064000D02*
X5881370Y-4064000D01*
X2343023Y-3358023D02*
X2343023Y-3287977D01*
X2272977Y-3287977D01*
X2272977Y-3358023D01*
X2343023Y-3358023D01*
X2343023Y-3808023D02*
X2343023Y-3737977D01*
X2272977Y-3737977D01*
X2272977Y-3808023D01*
X2343023Y-3808023D01*
X2343023Y-4071023D02*
X2343023Y-4000977D01*
X2272977Y-4000977D01*
X2272977Y-4071023D01*
X2343023Y-4071023D01*
X2343023Y-4521023D02*
X2343023Y-4450977D01*
X2272977Y-4450977D01*
X2272977Y-4521023D01*
X2343023Y-4521023D01*
X2343023Y-4758023D02*
X2343023Y-4687977D01*
X2272977Y-4687977D01*
X2272977Y-4758023D01*
X2343023Y-4758023D01*
X2343023Y-5208023D02*
X2343023Y-5137977D01*
X2272977Y-5137977D01*
X2272977Y-5208023D01*
X2343023Y-5208023D01*
X2993023Y-3358023D02*
X2993023Y-3287977D01*
X2922977Y-3287977D01*
X2922977Y-3358023D01*
X2993023Y-3358023D01*
X2993023Y-3808023D02*
X2993023Y-3737977D01*
X2922977Y-3737977D01*
X2922977Y-3808023D01*
X2993023Y-3808023D01*
X2993023Y-4071023D02*
X2993023Y-4000977D01*
X2922977Y-4000977D01*
X2922977Y-4071023D01*
X2993023Y-4071023D01*
X2993023Y-4521023D02*
X2993023Y-4450977D01*
X2922977Y-4450977D01*
X2922977Y-4521023D01*
X2993023Y-4521023D01*
X2993023Y-4758023D02*
X2993023Y-4687977D01*
X2922977Y-4687977D01*
X2922977Y-4758023D01*
X2993023Y-4758023D01*
X2993023Y-5208023D02*
X2993023Y-5137977D01*
X2922977Y-5137977D01*
X2922977Y-5208023D01*
X2993023Y-5208023D01*
X3257023Y-3358023D02*
X3257023Y-3287977D01*
X3186977Y-3287977D01*
X3186977Y-3358023D01*
X3257023Y-3358023D01*
X3257023Y-3808023D02*
X3257023Y-3737977D01*
X3186977Y-3737977D01*
X3186977Y-3808023D01*
X3257023Y-3808023D01*
X3257023Y-4055023D02*
X3257023Y-3984977D01*
X3186977Y-3984977D01*
X3186977Y-4055023D01*
X3257023Y-4055023D01*
X3257023Y-4505023D02*
X3257023Y-4434977D01*
X3186977Y-4434977D01*
X3186977Y-4505023D01*
X3257023Y-4505023D01*
X3257023Y-4758023D02*
X3257023Y-4687977D01*
X3186977Y-4687977D01*
X3186977Y-4758023D01*
X3257023Y-4758023D01*
X3257023Y-5208023D02*
X3257023Y-5137977D01*
X3186977Y-5137977D01*
X3186977Y-5208023D01*
X3257023Y-5208023D01*
X3907023Y-3358023D02*
X3907023Y-3287977D01*
X3836977Y-3287977D01*
X3836977Y-3358023D01*
X3907023Y-3358023D01*
X3907023Y-3808023D02*
X3907023Y-3737977D01*
X3836977Y-3737977D01*
X3836977Y-3808023D01*
X3907023Y-3808023D01*
X3907023Y-4055023D02*
X3907023Y-3984977D01*
X3836977Y-3984977D01*
X3836977Y-4055023D01*
X3907023Y-4055023D01*
X3907023Y-4505023D02*
X3907023Y-4434977D01*
X3836977Y-4434977D01*
X3836977Y-4505023D01*
X3907023Y-4505023D01*
X3907023Y-4758023D02*
X3907023Y-4687977D01*
X3836977Y-4687977D01*
X3836977Y-4758023D01*
X3907023Y-4758023D01*
X3907023Y-5208023D02*
X3907023Y-5137977D01*
X3836977Y-5137977D01*
X3836977Y-5208023D01*
X3907023Y-5208023D01*
X2110000Y-2734000D02*
X2160000Y-2684000D01*
X2110000Y-2634000D01*
X2060000Y-2684000D01*
X2110000Y-2734000D01*
X2110000Y-2988000D02*
X2160000Y-2938000D01*
X2110000Y-2888000D01*
X2060000Y-2938000D01*
X2110000Y-2988000D01*
X2364000Y-2734000D02*
X2414000Y-2684000D01*
X2364000Y-2634000D01*
X2314000Y-2684000D01*
X2364000Y-2734000D01*
X2364000Y-2988000D02*
X2414000Y-2938000D01*
X2364000Y-2888000D01*
X2314000Y-2938000D01*
X2364000Y-2988000D01*
X2618000Y-2734000D02*
X2668000Y-2684000D01*
X2618000Y-2634000D01*
X2568000Y-2684000D01*
X2618000Y-2734000D01*
X2618000Y-2988000D02*
X2668000Y-2938000D01*
X2618000Y-2888000D01*
X2568000Y-2938000D01*
X2618000Y-2988000D01*
X2872000Y-2734000D02*
X2922000Y-2684000D01*
X2872000Y-2634000D01*
X2822000Y-2684000D01*
X2872000Y-2734000D01*
X2872000Y-2988000D02*
X2922000Y-2938000D01*
X2872000Y-2888000D01*
X2822000Y-2938000D01*
X2872000Y-2988000D01*
X3126000Y-2734000D02*
X3176000Y-2684000D01*
X3126000Y-2634000D01*
X3076000Y-2684000D01*
X3126000Y-2734000D01*
X3126000Y-2988000D02*
X3176000Y-2938000D01*
X3126000Y-2888000D01*
X3076000Y-2938000D01*
X3126000Y-2988000D01*
X3380000Y-2734000D02*
X3430000Y-2684000D01*
X3380000Y-2634000D01*
X3330000Y-2684000D01*
X3380000Y-2734000D01*
X3380000Y-2988000D02*
X3430000Y-2938000D01*
X3380000Y-2888000D01*
X3330000Y-2938000D01*
X3380000Y-2988000D01*
X3634000Y-2734000D02*
X3684000Y-2684000D01*
X3634000Y-2634000D01*
X3584000Y-2684000D01*
X3634000Y-2734000D01*
X3634000Y-2988000D02*
X3684000Y-2938000D01*
X3634000Y-2888000D01*
X3584000Y-2938000D01*
X3634000Y-2988000D01*
X3888000Y-2734000D02*
X3938000Y-2684000D01*
X3888000Y-2634000D01*
X3838000Y-2684000D01*
X3888000Y-2734000D01*
X3888000Y-2988000D02*
X3938000Y-2938000D01*
X3888000Y-2888000D01*
X3838000Y-2938000D01*
X3888000Y-2988000D01*
X4142000Y-2734000D02*
X4192000Y-2684000D01*
X4142000Y-2634000D01*
X4092000Y-2684000D01*
X4142000Y-2734000D01*
X4142000Y-2988000D02*
X4192000Y-2938000D01*
X4142000Y-2888000D01*
X4092000Y-2938000D01*
X4142000Y-2988000D01*
X4396000Y-2734000D02*
X4446000Y-2684000D01*
X4396000Y-2634000D01*
X4346000Y-2684000D01*
X4396000Y-2734000D01*
X4396000Y-2988000D02*
X4446000Y-2938000D01*
X4396000Y-2888000D01*
X4346000Y-2938000D01*
X4396000Y-2988000D01*
X4650000Y-2734000D02*
X4700000Y-2684000D01*
X4650000Y-2634000D01*
X4600000Y-2684000D01*
X4650000Y-2734000D01*
X4650000Y-2988000D02*
X4700000Y-2938000D01*
X4650000Y-2888000D01*
X4600000Y-2938000D01*
X4650000Y-2988000D01*
X4904000Y-2734000D02*
X4954000Y-2684000D01*
X4904000Y-2634000D01*
X4854000Y-2684000D01*
X4904000Y-2734000D01*
X4904000Y-2988000D02*
X4954000Y-2938000D01*
X4904000Y-2888000D01*
X4854000Y-2938000D01*
X4904000Y-2988000D01*
X5158000Y-2734000D02*
X5208000Y-2684000D01*
X5158000Y-2634000D01*
X5108000Y-2684000D01*
X5158000Y-2734000D01*
X5158000Y-2988000D02*
X5208000Y-2938000D01*
X5158000Y-2888000D01*
X5108000Y-2938000D01*
X5158000Y-2988000D01*
X5412000Y-2734000D02*
X5462000Y-2684000D01*
X5412000Y-2634000D01*
X5362000Y-2684000D01*
X5412000Y-2734000D01*
X5412000Y-2988000D02*
X5462000Y-2938000D01*
X5412000Y-2888000D01*
X5362000Y-2938000D01*
X5412000Y-2988000D01*
X5666000Y-2734000D02*
X5716000Y-2684000D01*
X5666000Y-2634000D01*
X5616000Y-2684000D01*
X5666000Y-2734000D01*
X5666000Y-2988000D02*
X5716000Y-2938000D01*
X5666000Y-2888000D01*
X5616000Y-2938000D01*
X5666000Y-2988000D01*
X5920000Y-2734000D02*
X5970000Y-2684000D01*
X5920000Y-2634000D01*
X5870000Y-2684000D01*
X5920000Y-2734000D01*
X5920000Y-2988000D02*
X5970000Y-2938000D01*
X5920000Y-2888000D01*
X5870000Y-2938000D01*
X5920000Y-2988000D01*
X6174000Y-2734000D02*
X6224000Y-2684000D01*
X6174000Y-2634000D01*
X6124000Y-2684000D01*
X6174000Y-2734000D01*
X6174000Y-2988000D02*
X6224000Y-2938000D01*
X6174000Y-2888000D01*
X6124000Y-2938000D01*
X6174000Y-2988000D01*
X6428000Y-2734000D02*
X6478000Y-2684000D01*
X6428000Y-2634000D01*
X6378000Y-2684000D01*
X6428000Y-2734000D01*
X6428000Y-2988000D02*
X6478000Y-2938000D01*
X6428000Y-2888000D01*
X6378000Y-2938000D01*
X6428000Y-2988000D01*
X6682000Y-2734000D02*
X6732000Y-2684000D01*
X6682000Y-2634000D01*
X6632000Y-2684000D01*
X6682000Y-2734000D01*
X6682000Y-2988000D02*
X6732000Y-2938000D01*
X6682000Y-2888000D01*
X6632000Y-2938000D01*
X6682000Y-2988000D01*
X6886000Y-3614000D02*
X6936000Y-3564000D01*
X6886000Y-3514000D01*
X6836000Y-3564000D01*
X6886000Y-3614000D01*
X6886000Y-4374000D02*
X6936000Y-4324000D01*
X6886000Y-4274000D01*
X6836000Y-4324000D01*
X6886000Y-4374000D01*
X6936000Y-2734000D02*
X6986000Y-2684000D01*
X6936000Y-2634000D01*
X6886000Y-2684000D01*
X6936000Y-2734000D01*
X6936000Y-2988000D02*
X6986000Y-2938000D01*
X6936000Y-2888000D01*
X6886000Y-2938000D01*
X6936000Y-2988000D01*
D12*
X1531428Y-5920714D02*
X1531428Y-5620714D01*
X1602857Y-5620714D01*
X1645714Y-5635000D01*
X1674286Y-5663571D01*
X1688571Y-5692143D01*
X1702857Y-5749286D01*
X1702857Y-5792143D01*
X1688571Y-5849286D01*
X1674286Y-5877857D01*
X1645714Y-5906429D01*
X1602857Y-5920714D01*
X1531428Y-5920714D01*
X1831428Y-5920714D02*
X1831428Y-5720714D01*
X1831428Y-5777857D02*
X1845714Y-5749286D01*
X1860000Y-5735000D01*
X1888571Y-5720714D01*
X1917143Y-5720714D01*
X2017143Y-5920714D02*
X2017143Y-5720714D01*
X2017143Y-5620714D02*
X2002857Y-5635000D01*
X2017143Y-5649286D01*
X2031428Y-5635000D01*
X2017143Y-5620714D01*
X2017143Y-5649286D01*
X2202857Y-5920714D02*
X2174286Y-5906429D01*
X2160000Y-5877857D01*
X2160000Y-5620714D01*
X2360000Y-5920714D02*
X2331428Y-5906429D01*
X2317143Y-5877857D01*
X2317143Y-5620714D01*
X2702857Y-5920714D02*
X2702857Y-5620714D01*
X2802857Y-5835000D01*
X2902857Y-5620714D01*
X2902857Y-5920714D01*
X3174286Y-5920714D02*
X3174286Y-5763571D01*
X3160000Y-5735000D01*
X3131428Y-5720714D01*
X3074286Y-5720714D01*
X3045714Y-5735000D01*
X3174286Y-5906429D02*
X3145714Y-5920714D01*
X3074286Y-5920714D01*
X3045714Y-5906429D01*
X3031428Y-5877857D01*
X3031428Y-5849286D01*
X3045714Y-5820714D01*
X3074286Y-5806429D01*
X3145714Y-5806429D01*
X3174286Y-5792143D01*
X3317143Y-5720714D02*
X3317143Y-6020714D01*
X3317143Y-5735000D02*
X3345714Y-5720714D01*
X3402857Y-5720714D01*
X3431428Y-5735000D01*
X3445714Y-5749286D01*
X3460000Y-5777857D01*
X3460000Y-5863571D01*
X3445714Y-5892143D01*
X3431428Y-5906429D01*
X3402857Y-5920714D01*
X3345714Y-5920714D01*
X3317143Y-5906429D01*
X3588571Y-5892143D02*
X3602857Y-5906429D01*
X3588571Y-5920714D01*
X3574286Y-5906429D01*
X3588571Y-5892143D01*
X3588571Y-5920714D01*
X3588571Y-5735000D02*
X3602857Y-5749286D01*
X3588571Y-5763571D01*
X3574286Y-5749286D01*
X3588571Y-5735000D01*
X3588571Y-5763571D01*
X1211980Y-6398490D02*
X1245000Y-6431510D01*
X1245000Y-6398490D02*
X1211980Y-6431510D01*
X1588571Y-6250714D02*
X1617143Y-6250714D01*
X1645714Y-6265000D01*
X1660000Y-6279286D01*
X1674286Y-6307857D01*
X1688571Y-6365000D01*
X1688571Y-6436429D01*
X1674286Y-6493571D01*
X1660000Y-6522143D01*
X1645714Y-6536429D01*
X1617143Y-6550714D01*
X1588571Y-6550714D01*
X1560000Y-6536429D01*
X1545714Y-6522143D01*
X1531428Y-6493571D01*
X1517143Y-6436429D01*
X1517143Y-6365000D01*
X1531428Y-6307857D01*
X1545714Y-6279286D01*
X1560000Y-6265000D01*
X1588571Y-6250714D01*
X1817143Y-6522143D02*
X1831428Y-6536429D01*
X1817143Y-6550714D01*
X1802857Y-6536429D01*
X1817143Y-6522143D01*
X1817143Y-6550714D01*
X1931428Y-6250714D02*
X2117143Y-6250714D01*
X2017143Y-6365000D01*
X2060000Y-6365000D01*
X2088571Y-6379286D01*
X2102857Y-6393571D01*
X2117143Y-6422143D01*
X2117143Y-6493571D01*
X2102857Y-6522143D01*
X2088571Y-6536429D01*
X2060000Y-6550714D01*
X1974286Y-6550714D01*
X1945714Y-6536429D01*
X1931428Y-6522143D01*
X2217143Y-6250714D02*
X2402857Y-6250714D01*
X2302857Y-6365000D01*
X2345714Y-6365000D01*
X2374286Y-6379286D01*
X2388571Y-6393571D01*
X2402857Y-6422143D01*
X2402857Y-6493571D01*
X2388571Y-6522143D01*
X2374286Y-6536429D01*
X2345714Y-6550714D01*
X2260000Y-6550714D01*
X2231428Y-6536429D01*
X2217143Y-6522143D01*
X2588571Y-6250714D02*
X2617143Y-6250714D01*
X2645714Y-6265000D01*
X2660000Y-6279286D01*
X2674286Y-6307857D01*
X2688571Y-6365000D01*
X2688571Y-6436429D01*
X2674286Y-6493571D01*
X2660000Y-6522143D01*
X2645714Y-6536429D01*
X2617143Y-6550714D01*
X2588571Y-6550714D01*
X2560000Y-6536429D01*
X2545714Y-6522143D01*
X2531428Y-6493571D01*
X2517143Y-6436429D01*
X2517143Y-6365000D01*
X2531428Y-6307857D01*
X2545714Y-6279286D01*
X2560000Y-6265000D01*
X2588571Y-6250714D01*
X2817143Y-6550714D02*
X2817143Y-6350714D01*
X2817143Y-6379286D02*
X2831428Y-6365000D01*
X2860000Y-6350714D01*
X2902857Y-6350714D01*
X2931428Y-6365000D01*
X2945714Y-6393571D01*
X2945714Y-6550714D01*
X2945714Y-6393571D02*
X2960000Y-6365000D01*
X2988571Y-6350714D01*
X3031428Y-6350714D01*
X3060000Y-6365000D01*
X3074286Y-6393571D01*
X3074286Y-6550714D01*
X3217143Y-6550714D02*
X3217143Y-6350714D01*
X3217143Y-6379286D02*
X3231428Y-6365000D01*
X3260000Y-6350714D01*
X3302857Y-6350714D01*
X3331428Y-6365000D01*
X3345714Y-6393571D01*
X3345714Y-6550714D01*
X3345714Y-6393571D02*
X3360000Y-6365000D01*
X3388571Y-6350714D01*
X3431428Y-6350714D01*
X3460000Y-6365000D01*
X3474286Y-6393571D01*
X3474286Y-6550714D01*
X4060000Y-6236429D02*
X3802857Y-6622143D01*
X4445714Y-6250714D02*
X4474286Y-6250714D01*
X4502857Y-6265000D01*
X4517143Y-6279286D01*
X4531428Y-6307857D01*
X4545714Y-6365000D01*
X4545714Y-6436429D01*
X4531428Y-6493571D01*
X4517143Y-6522143D01*
X4502857Y-6536429D01*
X4474286Y-6550714D01*
X4445714Y-6550714D01*
X4417143Y-6536429D01*
X4402857Y-6522143D01*
X4388571Y-6493571D01*
X4374286Y-6436429D01*
X4374286Y-6365000D01*
X4388571Y-6307857D01*
X4402857Y-6279286D01*
X4417143Y-6265000D01*
X4445714Y-6250714D01*
X4674286Y-6522143D02*
X4688571Y-6536429D01*
X4674286Y-6550714D01*
X4660000Y-6536429D01*
X4674286Y-6522143D01*
X4674286Y-6550714D01*
X4874286Y-6250714D02*
X4902857Y-6250714D01*
X4931428Y-6265000D01*
X4945714Y-6279286D01*
X4960000Y-6307857D01*
X4974286Y-6365000D01*
X4974286Y-6436429D01*
X4960000Y-6493571D01*
X4945714Y-6522143D01*
X4931428Y-6536429D01*
X4902857Y-6550714D01*
X4874286Y-6550714D01*
X4845714Y-6536429D01*
X4831428Y-6522143D01*
X4817143Y-6493571D01*
X4802857Y-6436429D01*
X4802857Y-6365000D01*
X4817143Y-6307857D01*
X4831428Y-6279286D01*
X4845714Y-6265000D01*
X4874286Y-6250714D01*
X5260000Y-6550714D02*
X5088571Y-6550714D01*
X5174286Y-6550714D02*
X5174286Y-6250714D01*
X5145714Y-6293571D01*
X5117143Y-6322143D01*
X5088571Y-6336429D01*
X5360000Y-6250714D02*
X5545714Y-6250714D01*
X5445714Y-6365000D01*
X5488571Y-6365000D01*
X5517143Y-6379286D01*
X5531428Y-6393571D01*
X5545714Y-6422143D01*
X5545714Y-6493571D01*
X5531428Y-6522143D01*
X5517143Y-6536429D01*
X5488571Y-6550714D01*
X5402857Y-6550714D01*
X5374286Y-6536429D01*
X5360000Y-6522143D01*
X5731428Y-6250714D02*
X5760000Y-6250714D01*
X5788571Y-6265000D01*
X5802857Y-6279286D01*
X5817143Y-6307857D01*
X5831428Y-6365000D01*
X5831428Y-6436429D01*
X5817143Y-6493571D01*
X5802857Y-6522143D01*
X5788571Y-6536429D01*
X5760000Y-6550714D01*
X5731428Y-6550714D01*
X5702857Y-6536429D01*
X5688571Y-6522143D01*
X5674286Y-6493571D01*
X5660000Y-6436429D01*
X5660000Y-6365000D01*
X5674286Y-6307857D01*
X5688571Y-6279286D01*
X5702857Y-6265000D01*
X5731428Y-6250714D01*
X5945714Y-6250714D02*
X5945714Y-6307857D01*
X6060000Y-6250714D02*
X6060000Y-6307857D01*
X6502857Y-6665000D02*
X6488571Y-6650714D01*
X6460000Y-6607857D01*
X6445714Y-6579286D01*
X6431428Y-6536429D01*
X6417143Y-6465000D01*
X6417143Y-6407857D01*
X6431428Y-6336429D01*
X6445714Y-6293571D01*
X6460000Y-6265000D01*
X6488571Y-6222143D01*
X6502857Y-6207857D01*
X6774286Y-6550714D02*
X6602857Y-6550714D01*
X6688571Y-6550714D02*
X6688571Y-6250714D01*
X6660000Y-6293571D01*
X6631428Y-6322143D01*
X6602857Y-6336429D01*
X7131428Y-6550714D02*
X7131428Y-6250714D01*
X7260000Y-6550714D02*
X7260000Y-6393571D01*
X7245714Y-6365000D01*
X7217143Y-6350714D01*
X7174286Y-6350714D01*
X7145714Y-6365000D01*
X7131428Y-6379286D01*
X7445714Y-6550714D02*
X7417143Y-6536429D01*
X7402857Y-6522143D01*
X7388571Y-6493571D01*
X7388571Y-6407857D01*
X7402857Y-6379286D01*
X7417143Y-6365000D01*
X7445714Y-6350714D01*
X7488571Y-6350714D01*
X7517143Y-6365000D01*
X7531428Y-6379286D01*
X7545714Y-6407857D01*
X7545714Y-6493571D01*
X7531428Y-6522143D01*
X7517143Y-6536429D01*
X7488571Y-6550714D01*
X7445714Y-6550714D01*
X7717143Y-6550714D02*
X7688571Y-6536429D01*
X7674286Y-6507857D01*
X7674286Y-6250714D01*
X7945714Y-6536429D02*
X7917143Y-6550714D01*
X7860000Y-6550714D01*
X7831428Y-6536429D01*
X7817143Y-6507857D01*
X7817143Y-6393571D01*
X7831428Y-6365000D01*
X7860000Y-6350714D01*
X7917143Y-6350714D01*
X7945714Y-6365000D01*
X7960000Y-6393571D01*
X7960000Y-6422143D01*
X7817143Y-6450714D01*
X8060000Y-6665000D02*
X8074286Y-6650714D01*
X8102857Y-6607857D01*
X8117143Y-6579286D01*
X8131428Y-6536429D01*
X8145714Y-6465000D01*
X8145714Y-6407857D01*
X8131428Y-6336429D01*
X8117143Y-6293571D01*
X8102857Y-6265000D01*
X8074286Y-6222143D01*
X8060000Y-6207857D01*
X1245000Y-6811000D02*
G75*
G03*
X1245000Y-6811000I-20000J0D01*
G01*
X1588571Y-6646714D02*
X1617143Y-6646714D01*
X1645714Y-6661000D01*
X1660000Y-6675286D01*
X1674286Y-6703857D01*
X1688571Y-6761000D01*
X1688571Y-6832429D01*
X1674286Y-6889571D01*
X1660000Y-6918143D01*
X1645714Y-6932429D01*
X1617143Y-6946714D01*
X1588571Y-6946714D01*
X1560000Y-6932429D01*
X1545714Y-6918143D01*
X1531428Y-6889571D01*
X1517143Y-6832429D01*
X1517143Y-6761000D01*
X1531428Y-6703857D01*
X1545714Y-6675286D01*
X1560000Y-6661000D01*
X1588571Y-6646714D01*
X1817143Y-6918143D02*
X1831428Y-6932429D01*
X1817143Y-6946714D01*
X1802857Y-6932429D01*
X1817143Y-6918143D01*
X1817143Y-6946714D01*
X2088571Y-6746714D02*
X2088571Y-6946714D01*
X2017143Y-6632429D02*
X1945714Y-6846714D01*
X2131428Y-6846714D01*
X2302857Y-6646714D02*
X2331428Y-6646714D01*
X2360000Y-6661000D01*
X2374286Y-6675286D01*
X2388571Y-6703857D01*
X2402857Y-6761000D01*
X2402857Y-6832429D01*
X2388571Y-6889571D01*
X2374286Y-6918143D01*
X2360000Y-6932429D01*
X2331428Y-6946714D01*
X2302857Y-6946714D01*
X2274286Y-6932429D01*
X2260000Y-6918143D01*
X2245714Y-6889571D01*
X2231428Y-6832429D01*
X2231428Y-6761000D01*
X2245714Y-6703857D01*
X2260000Y-6675286D01*
X2274286Y-6661000D01*
X2302857Y-6646714D01*
X2588571Y-6646714D02*
X2617143Y-6646714D01*
X2645714Y-6661000D01*
X2660000Y-6675286D01*
X2674286Y-6703857D01*
X2688571Y-6761000D01*
X2688571Y-6832429D01*
X2674286Y-6889571D01*
X2660000Y-6918143D01*
X2645714Y-6932429D01*
X2617143Y-6946714D01*
X2588571Y-6946714D01*
X2560000Y-6932429D01*
X2545714Y-6918143D01*
X2531428Y-6889571D01*
X2517143Y-6832429D01*
X2517143Y-6761000D01*
X2531428Y-6703857D01*
X2545714Y-6675286D01*
X2560000Y-6661000D01*
X2588571Y-6646714D01*
X2817143Y-6946714D02*
X2817143Y-6746714D01*
X2817143Y-6775286D02*
X2831428Y-6761000D01*
X2860000Y-6746714D01*
X2902857Y-6746714D01*
X2931428Y-6761000D01*
X2945714Y-6789571D01*
X2945714Y-6946714D01*
X2945714Y-6789571D02*
X2960000Y-6761000D01*
X2988571Y-6746714D01*
X3031428Y-6746714D01*
X3060000Y-6761000D01*
X3074286Y-6789571D01*
X3074286Y-6946714D01*
X3217143Y-6946714D02*
X3217143Y-6746714D01*
X3217143Y-6775286D02*
X3231428Y-6761000D01*
X3260000Y-6746714D01*
X3302857Y-6746714D01*
X3331428Y-6761000D01*
X3345714Y-6789571D01*
X3345714Y-6946714D01*
X3345714Y-6789571D02*
X3360000Y-6761000D01*
X3388571Y-6746714D01*
X3431428Y-6746714D01*
X3460000Y-6761000D01*
X3474286Y-6789571D01*
X3474286Y-6946714D01*
X4060000Y-6632429D02*
X3802857Y-7018143D01*
X4445714Y-6646714D02*
X4474286Y-6646714D01*
X4502857Y-6661000D01*
X4517143Y-6675286D01*
X4531428Y-6703857D01*
X4545714Y-6761000D01*
X4545714Y-6832429D01*
X4531428Y-6889571D01*
X4517143Y-6918143D01*
X4502857Y-6932429D01*
X4474286Y-6946714D01*
X4445714Y-6946714D01*
X4417143Y-6932429D01*
X4402857Y-6918143D01*
X4388571Y-6889571D01*
X4374286Y-6832429D01*
X4374286Y-6761000D01*
X4388571Y-6703857D01*
X4402857Y-6675286D01*
X4417143Y-6661000D01*
X4445714Y-6646714D01*
X4674286Y-6918143D02*
X4688571Y-6932429D01*
X4674286Y-6946714D01*
X4660000Y-6932429D01*
X4674286Y-6918143D01*
X4674286Y-6946714D01*
X4874286Y-6646714D02*
X4902857Y-6646714D01*
X4931428Y-6661000D01*
X4945714Y-6675286D01*
X4960000Y-6703857D01*
X4974286Y-6761000D01*
X4974286Y-6832429D01*
X4960000Y-6889571D01*
X4945714Y-6918143D01*
X4931428Y-6932429D01*
X4902857Y-6946714D01*
X4874286Y-6946714D01*
X4845714Y-6932429D01*
X4831428Y-6918143D01*
X4817143Y-6889571D01*
X4802857Y-6832429D01*
X4802857Y-6761000D01*
X4817143Y-6703857D01*
X4831428Y-6675286D01*
X4845714Y-6661000D01*
X4874286Y-6646714D01*
X5260000Y-6946714D02*
X5088571Y-6946714D01*
X5174286Y-6946714D02*
X5174286Y-6646714D01*
X5145714Y-6689571D01*
X5117143Y-6718143D01*
X5088571Y-6732429D01*
X5531428Y-6646714D02*
X5388571Y-6646714D01*
X5374286Y-6789571D01*
X5388571Y-6775286D01*
X5417143Y-6761000D01*
X5488571Y-6761000D01*
X5517143Y-6775286D01*
X5531428Y-6789571D01*
X5545714Y-6818143D01*
X5545714Y-6889571D01*
X5531428Y-6918143D01*
X5517143Y-6932429D01*
X5488571Y-6946714D01*
X5417143Y-6946714D01*
X5388571Y-6932429D01*
X5374286Y-6918143D01*
X5645714Y-6646714D02*
X5845714Y-6646714D01*
X5717143Y-6946714D01*
X5945714Y-6646714D02*
X5945714Y-6703857D01*
X6060000Y-6646714D02*
X6060000Y-6703857D01*
X6502857Y-7061000D02*
X6488571Y-7046714D01*
X6460000Y-7003857D01*
X6445714Y-6975286D01*
X6431428Y-6932429D01*
X6417143Y-6861000D01*
X6417143Y-6803857D01*
X6431428Y-6732429D01*
X6445714Y-6689571D01*
X6460000Y-6661000D01*
X6488571Y-6618143D01*
X6502857Y-6603857D01*
X6745714Y-6646714D02*
X6688571Y-6646714D01*
X6660000Y-6661000D01*
X6645714Y-6675286D01*
X6617143Y-6718143D01*
X6602857Y-6775286D01*
X6602857Y-6889571D01*
X6617143Y-6918143D01*
X6631428Y-6932429D01*
X6660000Y-6946714D01*
X6717143Y-6946714D01*
X6745714Y-6932429D01*
X6760000Y-6918143D01*
X6774286Y-6889571D01*
X6774286Y-6818143D01*
X6760000Y-6789571D01*
X6745714Y-6775286D01*
X6717143Y-6761000D01*
X6660000Y-6761000D01*
X6631428Y-6775286D01*
X6617143Y-6789571D01*
X6602857Y-6818143D01*
X6888571Y-6675286D02*
X6902857Y-6661000D01*
X6931428Y-6646714D01*
X7002857Y-6646714D01*
X7031428Y-6661000D01*
X7045714Y-6675286D01*
X7060000Y-6703857D01*
X7060000Y-6732429D01*
X7045714Y-6775286D01*
X6874286Y-6946714D01*
X7060000Y-6946714D01*
X7417143Y-6946714D02*
X7417143Y-6646714D01*
X7545714Y-6946714D02*
X7545714Y-6789571D01*
X7531428Y-6761000D01*
X7502857Y-6746714D01*
X7460000Y-6746714D01*
X7431428Y-6761000D01*
X7417143Y-6775286D01*
X7731428Y-6946714D02*
X7702857Y-6932429D01*
X7688571Y-6918143D01*
X7674286Y-6889571D01*
X7674286Y-6803857D01*
X7688571Y-6775286D01*
X7702857Y-6761000D01*
X7731428Y-6746714D01*
X7774286Y-6746714D01*
X7802857Y-6761000D01*
X7817143Y-6775286D01*
X7831428Y-6803857D01*
X7831428Y-6889571D01*
X7817143Y-6918143D01*
X7802857Y-6932429D01*
X7774286Y-6946714D01*
X7731428Y-6946714D01*
X8002857Y-6946714D02*
X7974286Y-6932429D01*
X7960000Y-6903857D01*
X7960000Y-6646714D01*
X8231428Y-6932429D02*
X8202857Y-6946714D01*
X8145714Y-6946714D01*
X8117143Y-6932429D01*
X8102857Y-6903857D01*
X8102857Y-6789571D01*
X8117143Y-6761000D01*
X8145714Y-6746714D01*
X8202857Y-6746714D01*
X8231428Y-6761000D01*
X8245714Y-6789571D01*
X8245714Y-6818143D01*
X8102857Y-6846714D01*
X8360000Y-6932429D02*
X8388571Y-6946714D01*
X8445714Y-6946714D01*
X8474286Y-6932429D01*
X8488571Y-6903857D01*
X8488571Y-6889571D01*
X8474286Y-6861000D01*
X8445714Y-6846714D01*
X8402857Y-6846714D01*
X8374286Y-6832429D01*
X8360000Y-6803857D01*
X8360000Y-6789571D01*
X8374286Y-6761000D01*
X8402857Y-6746714D01*
X8445714Y-6746714D01*
X8474286Y-6761000D01*
X8588571Y-7061000D02*
X8602857Y-7046714D01*
X8631428Y-7003857D01*
X8645714Y-6975286D01*
X8660000Y-6932429D01*
X8674286Y-6861000D01*
X8674286Y-6803857D01*
X8660000Y-6732429D01*
X8645714Y-6689571D01*
X8631428Y-6661000D01*
X8602857Y-6618143D01*
X8588571Y-6603857D01*
X1205630Y-7167630D02*
X1205630Y-7246370D01*
X1166260Y-7207000D02*
X1245000Y-7207000D01*
X1588571Y-7042714D02*
X1617143Y-7042714D01*
X1645714Y-7057000D01*
X1660000Y-7071286D01*
X1674286Y-7099857D01*
X1688571Y-7157000D01*
X1688571Y-7228429D01*
X1674286Y-7285571D01*
X1660000Y-7314143D01*
X1645714Y-7328429D01*
X1617143Y-7342714D01*
X1588571Y-7342714D01*
X1560000Y-7328429D01*
X1545714Y-7314143D01*
X1531428Y-7285571D01*
X1517143Y-7228429D01*
X1517143Y-7157000D01*
X1531428Y-7099857D01*
X1545714Y-7071286D01*
X1560000Y-7057000D01*
X1588571Y-7042714D01*
X1817143Y-7314143D02*
X1831428Y-7328429D01*
X1817143Y-7342714D01*
X1802857Y-7328429D01*
X1817143Y-7314143D01*
X1817143Y-7342714D01*
X1931428Y-7042714D02*
X2131428Y-7042714D01*
X2002857Y-7342714D01*
X2288571Y-7171286D02*
X2260000Y-7157000D01*
X2245714Y-7142714D01*
X2231428Y-7114143D01*
X2231428Y-7099857D01*
X2245714Y-7071286D01*
X2260000Y-7057000D01*
X2288571Y-7042714D01*
X2345714Y-7042714D01*
X2374286Y-7057000D01*
X2388571Y-7071286D01*
X2402857Y-7099857D01*
X2402857Y-7114143D01*
X2388571Y-7142714D01*
X2374286Y-7157000D01*
X2345714Y-7171286D01*
X2288571Y-7171286D01*
X2260000Y-7185571D01*
X2245714Y-7199857D01*
X2231428Y-7228429D01*
X2231428Y-7285571D01*
X2245714Y-7314143D01*
X2260000Y-7328429D01*
X2288571Y-7342714D01*
X2345714Y-7342714D01*
X2374286Y-7328429D01*
X2388571Y-7314143D01*
X2402857Y-7285571D01*
X2402857Y-7228429D01*
X2388571Y-7199857D01*
X2374286Y-7185571D01*
X2345714Y-7171286D01*
X2502857Y-7042714D02*
X2702857Y-7042714D01*
X2574286Y-7342714D01*
X2817143Y-7342714D02*
X2817143Y-7142714D01*
X2817143Y-7171286D02*
X2831428Y-7157000D01*
X2860000Y-7142714D01*
X2902857Y-7142714D01*
X2931428Y-7157000D01*
X2945714Y-7185571D01*
X2945714Y-7342714D01*
X2945714Y-7185571D02*
X2960000Y-7157000D01*
X2988571Y-7142714D01*
X3031428Y-7142714D01*
X3060000Y-7157000D01*
X3074286Y-7185571D01*
X3074286Y-7342714D01*
X3217143Y-7342714D02*
X3217143Y-7142714D01*
X3217143Y-7171286D02*
X3231428Y-7157000D01*
X3260000Y-7142714D01*
X3302857Y-7142714D01*
X3331428Y-7157000D01*
X3345714Y-7185571D01*
X3345714Y-7342714D01*
X3345714Y-7185571D02*
X3360000Y-7157000D01*
X3388571Y-7142714D01*
X3431428Y-7142714D01*
X3460000Y-7157000D01*
X3474286Y-7185571D01*
X3474286Y-7342714D01*
X4060000Y-7028429D02*
X3802857Y-7414143D01*
X4445714Y-7042714D02*
X4474286Y-7042714D01*
X4502857Y-7057000D01*
X4517143Y-7071286D01*
X4531428Y-7099857D01*
X4545714Y-7157000D01*
X4545714Y-7228429D01*
X4531428Y-7285571D01*
X4517143Y-7314143D01*
X4502857Y-7328429D01*
X4474286Y-7342714D01*
X4445714Y-7342714D01*
X4417143Y-7328429D01*
X4402857Y-7314143D01*
X4388571Y-7285571D01*
X4374286Y-7228429D01*
X4374286Y-7157000D01*
X4388571Y-7099857D01*
X4402857Y-7071286D01*
X4417143Y-7057000D01*
X4445714Y-7042714D01*
X4674286Y-7314143D02*
X4688571Y-7328429D01*
X4674286Y-7342714D01*
X4660000Y-7328429D01*
X4674286Y-7314143D01*
X4674286Y-7342714D01*
X4874286Y-7042714D02*
X4902857Y-7042714D01*
X4931428Y-7057000D01*
X4945714Y-7071286D01*
X4960000Y-7099857D01*
X4974286Y-7157000D01*
X4974286Y-7228429D01*
X4960000Y-7285571D01*
X4945714Y-7314143D01*
X4931428Y-7328429D01*
X4902857Y-7342714D01*
X4874286Y-7342714D01*
X4845714Y-7328429D01*
X4831428Y-7314143D01*
X4817143Y-7285571D01*
X4802857Y-7228429D01*
X4802857Y-7157000D01*
X4817143Y-7099857D01*
X4831428Y-7071286D01*
X4845714Y-7057000D01*
X4874286Y-7042714D01*
X5074286Y-7042714D02*
X5260000Y-7042714D01*
X5160000Y-7157000D01*
X5202857Y-7157000D01*
X5231428Y-7171286D01*
X5245714Y-7185571D01*
X5260000Y-7214143D01*
X5260000Y-7285571D01*
X5245714Y-7314143D01*
X5231428Y-7328429D01*
X5202857Y-7342714D01*
X5117143Y-7342714D01*
X5088571Y-7328429D01*
X5074286Y-7314143D01*
X5545714Y-7342714D02*
X5374286Y-7342714D01*
X5460000Y-7342714D02*
X5460000Y-7042714D01*
X5431428Y-7085571D01*
X5402857Y-7114143D01*
X5374286Y-7128429D01*
X5731428Y-7042714D02*
X5760000Y-7042714D01*
X5788571Y-7057000D01*
X5802857Y-7071286D01*
X5817143Y-7099857D01*
X5831428Y-7157000D01*
X5831428Y-7228429D01*
X5817143Y-7285571D01*
X5802857Y-7314143D01*
X5788571Y-7328429D01*
X5760000Y-7342714D01*
X5731428Y-7342714D01*
X5702857Y-7328429D01*
X5688571Y-7314143D01*
X5674286Y-7285571D01*
X5660000Y-7228429D01*
X5660000Y-7157000D01*
X5674286Y-7099857D01*
X5688571Y-7071286D01*
X5702857Y-7057000D01*
X5731428Y-7042714D01*
X5945714Y-7042714D02*
X5945714Y-7099857D01*
X6060000Y-7042714D02*
X6060000Y-7099857D01*
X6502857Y-7457000D02*
X6488571Y-7442714D01*
X6460000Y-7399857D01*
X6445714Y-7371286D01*
X6431428Y-7328429D01*
X6417143Y-7257000D01*
X6417143Y-7199857D01*
X6431428Y-7128429D01*
X6445714Y-7085571D01*
X6460000Y-7057000D01*
X6488571Y-7014143D01*
X6502857Y-6999857D01*
X6774286Y-7342714D02*
X6602857Y-7342714D01*
X6688571Y-7342714D02*
X6688571Y-7042714D01*
X6660000Y-7085571D01*
X6631428Y-7114143D01*
X6602857Y-7128429D01*
X7031428Y-7142714D02*
X7031428Y-7342714D01*
X6960000Y-7028429D02*
X6888571Y-7242714D01*
X7074286Y-7242714D01*
X7417143Y-7342714D02*
X7417143Y-7042714D01*
X7545714Y-7342714D02*
X7545714Y-7185571D01*
X7531428Y-7157000D01*
X7502857Y-7142714D01*
X7460000Y-7142714D01*
X7431428Y-7157000D01*
X7417143Y-7171286D01*
X7731428Y-7342714D02*
X7702857Y-7328429D01*
X7688571Y-7314143D01*
X7674286Y-7285571D01*
X7674286Y-7199857D01*
X7688571Y-7171286D01*
X7702857Y-7157000D01*
X7731428Y-7142714D01*
X7774286Y-7142714D01*
X7802857Y-7157000D01*
X7817143Y-7171286D01*
X7831428Y-7199857D01*
X7831428Y-7285571D01*
X7817143Y-7314143D01*
X7802857Y-7328429D01*
X7774286Y-7342714D01*
X7731428Y-7342714D01*
X8002857Y-7342714D02*
X7974286Y-7328429D01*
X7960000Y-7299857D01*
X7960000Y-7042714D01*
X8231428Y-7328429D02*
X8202857Y-7342714D01*
X8145714Y-7342714D01*
X8117143Y-7328429D01*
X8102857Y-7299857D01*
X8102857Y-7185571D01*
X8117143Y-7157000D01*
X8145714Y-7142714D01*
X8202857Y-7142714D01*
X8231428Y-7157000D01*
X8245714Y-7185571D01*
X8245714Y-7214143D01*
X8102857Y-7242714D01*
X8360000Y-7328429D02*
X8388571Y-7342714D01*
X8445714Y-7342714D01*
X8474286Y-7328429D01*
X8488571Y-7299857D01*
X8488571Y-7285571D01*
X8474286Y-7257000D01*
X8445714Y-7242714D01*
X8402857Y-7242714D01*
X8374286Y-7228429D01*
X8360000Y-7199857D01*
X8360000Y-7185571D01*
X8374286Y-7157000D01*
X8402857Y-7142714D01*
X8445714Y-7142714D01*
X8474286Y-7157000D01*
X8588571Y-7457000D02*
X8602857Y-7442714D01*
X8631428Y-7399857D01*
X8645714Y-7371286D01*
X8660000Y-7328429D01*
X8674286Y-7257000D01*
X8674286Y-7199857D01*
X8660000Y-7128429D01*
X8645714Y-7085571D01*
X8631428Y-7057000D01*
X8602857Y-7014143D01*
X8588571Y-6999857D01*
X1230493Y-7638023D02*
X1230493Y-7567977D01*
X1160447Y-7567977D01*
X1160447Y-7638023D01*
X1230493Y-7638023D01*
X1588571Y-7438714D02*
X1617143Y-7438714D01*
X1645714Y-7453000D01*
X1660000Y-7467286D01*
X1674286Y-7495857D01*
X1688571Y-7553000D01*
X1688571Y-7624429D01*
X1674286Y-7681571D01*
X1660000Y-7710143D01*
X1645714Y-7724429D01*
X1617143Y-7738714D01*
X1588571Y-7738714D01*
X1560000Y-7724429D01*
X1545714Y-7710143D01*
X1531428Y-7681571D01*
X1517143Y-7624429D01*
X1517143Y-7553000D01*
X1531428Y-7495857D01*
X1545714Y-7467286D01*
X1560000Y-7453000D01*
X1588571Y-7438714D01*
X1817143Y-7710143D02*
X1831428Y-7724429D01*
X1817143Y-7738714D01*
X1802857Y-7724429D01*
X1817143Y-7710143D01*
X1817143Y-7738714D01*
X1974286Y-7738714D02*
X2031428Y-7738714D01*
X2060000Y-7724429D01*
X2074286Y-7710143D01*
X2102857Y-7667286D01*
X2117143Y-7610143D01*
X2117143Y-7495857D01*
X2102857Y-7467286D01*
X2088571Y-7453000D01*
X2060000Y-7438714D01*
X2002857Y-7438714D01*
X1974286Y-7453000D01*
X1960000Y-7467286D01*
X1945714Y-7495857D01*
X1945714Y-7567286D01*
X1960000Y-7595857D01*
X1974286Y-7610143D01*
X2002857Y-7624429D01*
X2060000Y-7624429D01*
X2088571Y-7610143D01*
X2102857Y-7595857D01*
X2117143Y-7567286D01*
X2260000Y-7738714D02*
X2317143Y-7738714D01*
X2345714Y-7724429D01*
X2360000Y-7710143D01*
X2388571Y-7667286D01*
X2402857Y-7610143D01*
X2402857Y-7495857D01*
X2388571Y-7467286D01*
X2374286Y-7453000D01*
X2345714Y-7438714D01*
X2288571Y-7438714D01*
X2260000Y-7453000D01*
X2245714Y-7467286D01*
X2231428Y-7495857D01*
X2231428Y-7567286D01*
X2245714Y-7595857D01*
X2260000Y-7610143D01*
X2288571Y-7624429D01*
X2345714Y-7624429D01*
X2374286Y-7610143D01*
X2388571Y-7595857D01*
X2402857Y-7567286D01*
X2688571Y-7738714D02*
X2517143Y-7738714D01*
X2602857Y-7738714D02*
X2602857Y-7438714D01*
X2574286Y-7481571D01*
X2545714Y-7510143D01*
X2517143Y-7524429D01*
X2817143Y-7738714D02*
X2817143Y-7538714D01*
X2817143Y-7567286D02*
X2831428Y-7553000D01*
X2860000Y-7538714D01*
X2902857Y-7538714D01*
X2931428Y-7553000D01*
X2945714Y-7581571D01*
X2945714Y-7738714D01*
X2945714Y-7581571D02*
X2960000Y-7553000D01*
X2988571Y-7538714D01*
X3031428Y-7538714D01*
X3060000Y-7553000D01*
X3074286Y-7581571D01*
X3074286Y-7738714D01*
X3217143Y-7738714D02*
X3217143Y-7538714D01*
X3217143Y-7567286D02*
X3231428Y-7553000D01*
X3260000Y-7538714D01*
X3302857Y-7538714D01*
X3331428Y-7553000D01*
X3345714Y-7581571D01*
X3345714Y-7738714D01*
X3345714Y-7581571D02*
X3360000Y-7553000D01*
X3388571Y-7538714D01*
X3431428Y-7538714D01*
X3460000Y-7553000D01*
X3474286Y-7581571D01*
X3474286Y-7738714D01*
X4060000Y-7424429D02*
X3802857Y-7810143D01*
X4445714Y-7438714D02*
X4474286Y-7438714D01*
X4502857Y-7453000D01*
X4517143Y-7467286D01*
X4531428Y-7495857D01*
X4545714Y-7553000D01*
X4545714Y-7624429D01*
X4531428Y-7681571D01*
X4517143Y-7710143D01*
X4502857Y-7724429D01*
X4474286Y-7738714D01*
X4445714Y-7738714D01*
X4417143Y-7724429D01*
X4402857Y-7710143D01*
X4388571Y-7681571D01*
X4374286Y-7624429D01*
X4374286Y-7553000D01*
X4388571Y-7495857D01*
X4402857Y-7467286D01*
X4417143Y-7453000D01*
X4445714Y-7438714D01*
X4674286Y-7710143D02*
X4688571Y-7724429D01*
X4674286Y-7738714D01*
X4660000Y-7724429D01*
X4674286Y-7710143D01*
X4674286Y-7738714D01*
X4874286Y-7438714D02*
X4902857Y-7438714D01*
X4931428Y-7453000D01*
X4945714Y-7467286D01*
X4960000Y-7495857D01*
X4974286Y-7553000D01*
X4974286Y-7624429D01*
X4960000Y-7681571D01*
X4945714Y-7710143D01*
X4931428Y-7724429D01*
X4902857Y-7738714D01*
X4874286Y-7738714D01*
X4845714Y-7724429D01*
X4831428Y-7710143D01*
X4817143Y-7681571D01*
X4802857Y-7624429D01*
X4802857Y-7553000D01*
X4817143Y-7495857D01*
X4831428Y-7467286D01*
X4845714Y-7453000D01*
X4874286Y-7438714D01*
X5074286Y-7438714D02*
X5260000Y-7438714D01*
X5160000Y-7553000D01*
X5202857Y-7553000D01*
X5231428Y-7567286D01*
X5245714Y-7581571D01*
X5260000Y-7610143D01*
X5260000Y-7681571D01*
X5245714Y-7710143D01*
X5231428Y-7724429D01*
X5202857Y-7738714D01*
X5117143Y-7738714D01*
X5088571Y-7724429D01*
X5074286Y-7710143D01*
X5402857Y-7738714D02*
X5460000Y-7738714D01*
X5488571Y-7724429D01*
X5502857Y-7710143D01*
X5531428Y-7667286D01*
X5545714Y-7610143D01*
X5545714Y-7495857D01*
X5531428Y-7467286D01*
X5517143Y-7453000D01*
X5488571Y-7438714D01*
X5431428Y-7438714D01*
X5402857Y-7453000D01*
X5388571Y-7467286D01*
X5374286Y-7495857D01*
X5374286Y-7567286D01*
X5388571Y-7595857D01*
X5402857Y-7610143D01*
X5431428Y-7624429D01*
X5488571Y-7624429D01*
X5517143Y-7610143D01*
X5531428Y-7595857D01*
X5545714Y-7567286D01*
X5731428Y-7438714D02*
X5760000Y-7438714D01*
X5788571Y-7453000D01*
X5802857Y-7467286D01*
X5817143Y-7495857D01*
X5831428Y-7553000D01*
X5831428Y-7624429D01*
X5817143Y-7681571D01*
X5802857Y-7710143D01*
X5788571Y-7724429D01*
X5760000Y-7738714D01*
X5731428Y-7738714D01*
X5702857Y-7724429D01*
X5688571Y-7710143D01*
X5674286Y-7681571D01*
X5660000Y-7624429D01*
X5660000Y-7553000D01*
X5674286Y-7495857D01*
X5688571Y-7467286D01*
X5702857Y-7453000D01*
X5731428Y-7438714D01*
X5945714Y-7438714D02*
X5945714Y-7495857D01*
X6060000Y-7438714D02*
X6060000Y-7495857D01*
X6502857Y-7853000D02*
X6488571Y-7838714D01*
X6460000Y-7795857D01*
X6445714Y-7767286D01*
X6431428Y-7724429D01*
X6417143Y-7653000D01*
X6417143Y-7595857D01*
X6431428Y-7524429D01*
X6445714Y-7481571D01*
X6460000Y-7453000D01*
X6488571Y-7410143D01*
X6502857Y-7395857D01*
X6602857Y-7467286D02*
X6617143Y-7453000D01*
X6645714Y-7438714D01*
X6717143Y-7438714D01*
X6745714Y-7453000D01*
X6760000Y-7467286D01*
X6774286Y-7495857D01*
X6774286Y-7524429D01*
X6760000Y-7567286D01*
X6588571Y-7738714D01*
X6774286Y-7738714D01*
X7031428Y-7538714D02*
X7031428Y-7738714D01*
X6960000Y-7424429D02*
X6888571Y-7638714D01*
X7074286Y-7638714D01*
X7417143Y-7738714D02*
X7417143Y-7438714D01*
X7545714Y-7738714D02*
X7545714Y-7581571D01*
X7531428Y-7553000D01*
X7502857Y-7538714D01*
X7460000Y-7538714D01*
X7431428Y-7553000D01*
X7417143Y-7567286D01*
X7731428Y-7738714D02*
X7702857Y-7724429D01*
X7688571Y-7710143D01*
X7674286Y-7681571D01*
X7674286Y-7595857D01*
X7688571Y-7567286D01*
X7702857Y-7553000D01*
X7731428Y-7538714D01*
X7774286Y-7538714D01*
X7802857Y-7553000D01*
X7817143Y-7567286D01*
X7831428Y-7595857D01*
X7831428Y-7681571D01*
X7817143Y-7710143D01*
X7802857Y-7724429D01*
X7774286Y-7738714D01*
X7731428Y-7738714D01*
X8002857Y-7738714D02*
X7974286Y-7724429D01*
X7960000Y-7695857D01*
X7960000Y-7438714D01*
X8231428Y-7724429D02*
X8202857Y-7738714D01*
X8145714Y-7738714D01*
X8117143Y-7724429D01*
X8102857Y-7695857D01*
X8102857Y-7581571D01*
X8117143Y-7553000D01*
X8145714Y-7538714D01*
X8202857Y-7538714D01*
X8231428Y-7553000D01*
X8245714Y-7581571D01*
X8245714Y-7610143D01*
X8102857Y-7638714D01*
X8360000Y-7724429D02*
X8388571Y-7738714D01*
X8445714Y-7738714D01*
X8474286Y-7724429D01*
X8488571Y-7695857D01*
X8488571Y-7681571D01*
X8474286Y-7653000D01*
X8445714Y-7638714D01*
X8402857Y-7638714D01*
X8374286Y-7624429D01*
X8360000Y-7595857D01*
X8360000Y-7581571D01*
X8374286Y-7553000D01*
X8402857Y-7538714D01*
X8445714Y-7538714D01*
X8474286Y-7553000D01*
X8588571Y-7853000D02*
X8602857Y-7838714D01*
X8631428Y-7795857D01*
X8645714Y-7767286D01*
X8660000Y-7724429D01*
X8674286Y-7653000D01*
X8674286Y-7595857D01*
X8660000Y-7524429D01*
X8645714Y-7481571D01*
X8631428Y-7453000D01*
X8602857Y-7410143D01*
X8588571Y-7395857D01*
X1195000Y-8049000D02*
X1245000Y-7999000D01*
X1195000Y-7949000D01*
X1145000Y-7999000D01*
X1195000Y-8049000D01*
X1688571Y-8134714D02*
X1517143Y-8134714D01*
X1602857Y-8134714D02*
X1602857Y-7834714D01*
X1574286Y-7877571D01*
X1545714Y-7906143D01*
X1517143Y-7920429D01*
X1817143Y-8106143D02*
X1831428Y-8120429D01*
X1817143Y-8134714D01*
X1802857Y-8120429D01*
X1817143Y-8106143D01*
X1817143Y-8134714D01*
X2017143Y-7834714D02*
X2045714Y-7834714D01*
X2074286Y-7849000D01*
X2088571Y-7863286D01*
X2102857Y-7891857D01*
X2117143Y-7949000D01*
X2117143Y-8020429D01*
X2102857Y-8077571D01*
X2088571Y-8106143D01*
X2074286Y-8120429D01*
X2045714Y-8134714D01*
X2017143Y-8134714D01*
X1988571Y-8120429D01*
X1974286Y-8106143D01*
X1960000Y-8077571D01*
X1945714Y-8020429D01*
X1945714Y-7949000D01*
X1960000Y-7891857D01*
X1974286Y-7863286D01*
X1988571Y-7849000D01*
X2017143Y-7834714D01*
X2302857Y-7834714D02*
X2331428Y-7834714D01*
X2360000Y-7849000D01*
X2374286Y-7863286D01*
X2388571Y-7891857D01*
X2402857Y-7949000D01*
X2402857Y-8020429D01*
X2388571Y-8077571D01*
X2374286Y-8106143D01*
X2360000Y-8120429D01*
X2331428Y-8134714D01*
X2302857Y-8134714D01*
X2274286Y-8120429D01*
X2260000Y-8106143D01*
X2245714Y-8077571D01*
X2231428Y-8020429D01*
X2231428Y-7949000D01*
X2245714Y-7891857D01*
X2260000Y-7863286D01*
X2274286Y-7849000D01*
X2302857Y-7834714D01*
X2588571Y-7834714D02*
X2617143Y-7834714D01*
X2645714Y-7849000D01*
X2660000Y-7863286D01*
X2674286Y-7891857D01*
X2688571Y-7949000D01*
X2688571Y-8020429D01*
X2674286Y-8077571D01*
X2660000Y-8106143D01*
X2645714Y-8120429D01*
X2617143Y-8134714D01*
X2588571Y-8134714D01*
X2560000Y-8120429D01*
X2545714Y-8106143D01*
X2531428Y-8077571D01*
X2517143Y-8020429D01*
X2517143Y-7949000D01*
X2531428Y-7891857D01*
X2545714Y-7863286D01*
X2560000Y-7849000D01*
X2588571Y-7834714D01*
X2817143Y-8134714D02*
X2817143Y-7934714D01*
X2817143Y-7963286D02*
X2831428Y-7949000D01*
X2860000Y-7934714D01*
X2902857Y-7934714D01*
X2931428Y-7949000D01*
X2945714Y-7977571D01*
X2945714Y-8134714D01*
X2945714Y-7977571D02*
X2960000Y-7949000D01*
X2988571Y-7934714D01*
X3031428Y-7934714D01*
X3060000Y-7949000D01*
X3074286Y-7977571D01*
X3074286Y-8134714D01*
X3217143Y-8134714D02*
X3217143Y-7934714D01*
X3217143Y-7963286D02*
X3231428Y-7949000D01*
X3260000Y-7934714D01*
X3302857Y-7934714D01*
X3331428Y-7949000D01*
X3345714Y-7977571D01*
X3345714Y-8134714D01*
X3345714Y-7977571D02*
X3360000Y-7949000D01*
X3388571Y-7934714D01*
X3431428Y-7934714D01*
X3460000Y-7949000D01*
X3474286Y-7977571D01*
X3474286Y-8134714D01*
X4060000Y-7820429D02*
X3802857Y-8206143D01*
X4445714Y-7834714D02*
X4474286Y-7834714D01*
X4502857Y-7849000D01*
X4517143Y-7863286D01*
X4531428Y-7891857D01*
X4545714Y-7949000D01*
X4545714Y-8020429D01*
X4531428Y-8077571D01*
X4517143Y-8106143D01*
X4502857Y-8120429D01*
X4474286Y-8134714D01*
X4445714Y-8134714D01*
X4417143Y-8120429D01*
X4402857Y-8106143D01*
X4388571Y-8077571D01*
X4374286Y-8020429D01*
X4374286Y-7949000D01*
X4388571Y-7891857D01*
X4402857Y-7863286D01*
X4417143Y-7849000D01*
X4445714Y-7834714D01*
X4674286Y-8106143D02*
X4688571Y-8120429D01*
X4674286Y-8134714D01*
X4660000Y-8120429D01*
X4674286Y-8106143D01*
X4674286Y-8134714D01*
X4874286Y-7834714D02*
X4902857Y-7834714D01*
X4931428Y-7849000D01*
X4945714Y-7863286D01*
X4960000Y-7891857D01*
X4974286Y-7949000D01*
X4974286Y-8020429D01*
X4960000Y-8077571D01*
X4945714Y-8106143D01*
X4931428Y-8120429D01*
X4902857Y-8134714D01*
X4874286Y-8134714D01*
X4845714Y-8120429D01*
X4831428Y-8106143D01*
X4817143Y-8077571D01*
X4802857Y-8020429D01*
X4802857Y-7949000D01*
X4817143Y-7891857D01*
X4831428Y-7863286D01*
X4845714Y-7849000D01*
X4874286Y-7834714D01*
X5074286Y-7834714D02*
X5260000Y-7834714D01*
X5160000Y-7949000D01*
X5202857Y-7949000D01*
X5231428Y-7963286D01*
X5245714Y-7977571D01*
X5260000Y-8006143D01*
X5260000Y-8077571D01*
X5245714Y-8106143D01*
X5231428Y-8120429D01*
X5202857Y-8134714D01*
X5117143Y-8134714D01*
X5088571Y-8120429D01*
X5074286Y-8106143D01*
X5402857Y-8134714D02*
X5460000Y-8134714D01*
X5488571Y-8120429D01*
X5502857Y-8106143D01*
X5531428Y-8063286D01*
X5545714Y-8006143D01*
X5545714Y-7891857D01*
X5531428Y-7863286D01*
X5517143Y-7849000D01*
X5488571Y-7834714D01*
X5431428Y-7834714D01*
X5402857Y-7849000D01*
X5388571Y-7863286D01*
X5374286Y-7891857D01*
X5374286Y-7963286D01*
X5388571Y-7991857D01*
X5402857Y-8006143D01*
X5431428Y-8020429D01*
X5488571Y-8020429D01*
X5517143Y-8006143D01*
X5531428Y-7991857D01*
X5545714Y-7963286D01*
X5802857Y-7934714D02*
X5802857Y-8134714D01*
X5731428Y-7820429D02*
X5660000Y-8034714D01*
X5845714Y-8034714D01*
X5945714Y-7834714D02*
X5945714Y-7891857D01*
X6060000Y-7834714D02*
X6060000Y-7891857D01*
X6502857Y-8249000D02*
X6488571Y-8234714D01*
X6460000Y-8191857D01*
X6445714Y-8163286D01*
X6431428Y-8120429D01*
X6417143Y-8049000D01*
X6417143Y-7991857D01*
X6431428Y-7920429D01*
X6445714Y-7877571D01*
X6460000Y-7849000D01*
X6488571Y-7806143D01*
X6502857Y-7791857D01*
X6745714Y-7934714D02*
X6745714Y-8134714D01*
X6674286Y-7820429D02*
X6602857Y-8034714D01*
X6788571Y-8034714D01*
X6888571Y-7863286D02*
X6902857Y-7849000D01*
X6931428Y-7834714D01*
X7002857Y-7834714D01*
X7031428Y-7849000D01*
X7045714Y-7863286D01*
X7060000Y-7891857D01*
X7060000Y-7920429D01*
X7045714Y-7963286D01*
X6874286Y-8134714D01*
X7060000Y-8134714D01*
X7417143Y-8134714D02*
X7417143Y-7834714D01*
X7545714Y-8134714D02*
X7545714Y-7977571D01*
X7531428Y-7949000D01*
X7502857Y-7934714D01*
X7460000Y-7934714D01*
X7431428Y-7949000D01*
X7417143Y-7963286D01*
X7731428Y-8134714D02*
X7702857Y-8120429D01*
X7688571Y-8106143D01*
X7674286Y-8077571D01*
X7674286Y-7991857D01*
X7688571Y-7963286D01*
X7702857Y-7949000D01*
X7731428Y-7934714D01*
X7774286Y-7934714D01*
X7802857Y-7949000D01*
X7817143Y-7963286D01*
X7831428Y-7991857D01*
X7831428Y-8077571D01*
X7817143Y-8106143D01*
X7802857Y-8120429D01*
X7774286Y-8134714D01*
X7731428Y-8134714D01*
X8002857Y-8134714D02*
X7974286Y-8120429D01*
X7960000Y-8091857D01*
X7960000Y-7834714D01*
X8231428Y-8120429D02*
X8202857Y-8134714D01*
X8145714Y-8134714D01*
X8117143Y-8120429D01*
X8102857Y-8091857D01*
X8102857Y-7977571D01*
X8117143Y-7949000D01*
X8145714Y-7934714D01*
X8202857Y-7934714D01*
X8231428Y-7949000D01*
X8245714Y-7977571D01*
X8245714Y-8006143D01*
X8102857Y-8034714D01*
X8360000Y-8120429D02*
X8388571Y-8134714D01*
X8445714Y-8134714D01*
X8474286Y-8120429D01*
X8488571Y-8091857D01*
X8488571Y-8077571D01*
X8474286Y-8049000D01*
X8445714Y-8034714D01*
X8402857Y-8034714D01*
X8374286Y-8020429D01*
X8360000Y-7991857D01*
X8360000Y-7977571D01*
X8374286Y-7949000D01*
X8402857Y-7934714D01*
X8445714Y-7934714D01*
X8474286Y-7949000D01*
X8588571Y-8249000D02*
X8602857Y-8234714D01*
X8631428Y-8191857D01*
X8645714Y-8163286D01*
X8660000Y-8120429D01*
X8674286Y-8049000D01*
X8674286Y-7991857D01*
X8660000Y-7920429D01*
X8645714Y-7877571D01*
X8631428Y-7849000D01*
X8602857Y-7806143D01*
X8588571Y-7791857D01*
M02*
