M48
; DRILL file {KiCad (5.1.10)-1} date 06/05/21 16:36:53
; FORMAT={-:-/ absolute / inch / decimal}
; #@! TF.CreationDate,2021-06-05T16:36:53+02:00
; #@! TF.GenerationSoftware,Kicad,Pcbnew,(5.1.10)-1
; #@! TF.FileFunction,NonPlated,1,4,NPTH
FMAT,2
INCH
T1C0.0382
T2C0.0701
T3C0.1083
%
G90
G05
T1
X0.8311Y-1.0543
X0.8311Y-1.1543
X0.9311Y-1.0543
X0.9311Y-1.1543
X1.0311Y-1.0543
X1.0311Y-1.1543
X1.1311Y-1.0543
X1.1311Y-1.1543
X1.2311Y-1.0543
X1.2311Y-1.1543
X1.3311Y-1.0543
X1.3311Y-1.1543
X1.4311Y-1.0543
X1.4311Y-1.1543
X1.5311Y-1.0543
X1.5311Y-1.1543
X1.6311Y-1.0543
X1.6311Y-1.1543
X1.7311Y-1.0543
X1.7311Y-1.1543
X1.8311Y-1.0543
X1.8311Y-1.1543
X1.9311Y-1.0543
X1.9311Y-1.1543
X2.0311Y-1.0543
X2.0311Y-1.1543
X2.1311Y-1.0543
X2.1311Y-1.1543
X2.2311Y-1.0543
X2.2311Y-1.1543
X2.3311Y-1.0543
X2.3311Y-1.1543
X2.4311Y-1.0543
X2.4311Y-1.1543
X2.5311Y-1.0543
X2.5311Y-1.1543
X2.6311Y-1.0543
X2.6311Y-1.1543
X2.7311Y-1.0543
X2.7311Y-1.1543
T2
X0.8811Y-1.1043
X2.6811Y-1.1043
T3
X0.6299Y-1.1024
X0.6299Y-2.0079
X2.9134Y-1.1024
T0
M30
